<?xml version="1.0" standalone="no"?>
<!DOCTYPE svg PUBLIC "-//W3C//DTD SVG 20010904//EN"
 "http://www.w3.org/TR/2001/REC-SVG-20010904/DTD/svg10.dtd">
<svg version="1.0" xmlns="http://www.w3.org/2000/svg"
 width="1000.000000pt" height="1000.000000pt" viewBox="0 0 1000.000000 1000.000000"
 preserveAspectRatio="xMidYMid meet">

<g transform="translate(0.000000,1000.000000) scale(0.100000,-0.100000)"
fill="#000000" stroke="none">
<path d="M0 5000 l0 -5000 1205 0 1205 0 0 45 c0 25 -4 45 -10 45 -5 0 -13 12
-16 28 -4 15 -12 34 -19 42 -7 8 -16 38 -20 65 -11 90 -25 179 -35 235 -5 30
-15 83 -20 118 -6 35 -15 72 -20 82 -5 10 -12 36 -14 57 -2 21 -11 76 -20 123
-39 199 -55 289 -60 345 -15 151 -19 172 -36 205 -11 19 -26 69 -35 110 -9 41
-25 113 -36 160 -11 47 -26 118 -34 158 -8 40 -16 76 -19 80 -2 4 -7 35 -10
69 -3 34 -14 80 -25 101 -13 25 -19 59 -20 100 0 46 -6 74 -25 110 -13 26 -27
58 -30 72 -2 14 -20 79 -39 145 -42 147 -97 376 -97 404 0 11 -4 23 -10 26 -5
3 -10 23 -10 44 0 22 -6 44 -15 51 -8 7 -15 28 -15 47 0 19 -7 51 -16 70 -12
25 -14 37 -6 45 8 8 7 19 -4 39 -8 17 -10 29 -4 29 18 0 10 35 -11 49 -15 9
-18 15 -10 20 9 6 8 15 -3 36 -8 16 -13 32 -10 37 3 5 -6 21 -20 35 -31 31
-51 93 -34 108 8 7 9 6 4 -2 -3 -7 2 -14 13 -18 11 -3 22 -13 25 -22 5 -13 4
-14 -9 -3 -8 7 -15 8 -15 2 0 -12 30 -38 30 -26 1 21 29 -44 30 -67 0 -15 7
-32 15 -39 8 -7 15 -17 15 -22 0 -5 7 -16 15 -24 10 -11 13 -30 10 -65 -3 -41
0 -52 16 -62 11 -7 19 -23 19 -37 0 -14 5 -31 12 -38 16 -16 20 -52 7 -68 -8
-9 -5 -20 11 -42 12 -17 19 -35 16 -41 -4 -6 -2 -11 3 -11 6 0 11 -7 11 -16 0
-9 7 -22 16 -29 11 -8 17 -32 20 -76 2 -35 5 -75 7 -89 2 -14 5 -33 5 -42 1
-10 10 -18 20 -18 20 0 40 -42 51 -108 5 -28 4 -42 -3 -42 -7 0 -7 -3 -1 -8
22 -16 49 -85 47 -121 -2 -24 3 -43 13 -51 9 -8 13 -21 9 -36 -4 -16 -2 -24 6
-24 8 0 11 -9 8 -25 -3 -14 -1 -28 3 -31 5 -3 9 -13 9 -23 0 -10 9 -26 20 -36
11 -10 17 -22 14 -27 -3 -5 2 -16 12 -23 11 -8 14 -15 8 -15 -6 0 -11 -13 -10
-29 1 -16 4 -27 8 -24 5 2 8 0 8 -6 0 -5 -6 -12 -12 -14 -7 -3 -2 -6 12 -7 14
-1 19 -4 12 -7 -10 -4 -10 -7 2 -17 13 -10 24 -81 16 -111 -7 -29 1 -47 17
-41 10 4 14 4 10 0 -4 -4 0 -18 8 -30 8 -13 17 -47 21 -76 3 -29 8 -69 10 -88
3 -19 7 -59 9 -88 2 -30 13 -72 24 -95 11 -23 20 -51 19 -63 -1 -11 6 -37 15
-57 34 -70 90 -313 102 -437 4 -36 10 -74 15 -85 16 -39 40 -110 46 -140 3
-16 8 -39 10 -50 3 -11 7 -38 10 -60 4 -22 10 -45 15 -51 9 -11 18 -58 23
-124 8 -91 35 -278 48 -325 23 -90 18 -86 110 -83 l83 3 -1 35 c-1 19 -2 50
-3 68 -1 22 -5 31 -12 26 -8 -4 -9 3 -4 24 3 17 2 33 -4 36 -24 15 -44 79 -56
181 -8 61 -19 130 -24 155 -6 25 -16 72 -22 105 -6 33 -14 69 -19 80 -5 11
-12 46 -15 78 -4 31 -11 57 -16 57 -5 0 -9 7 -9 16 0 9 -9 27 -20 41 -21 27
-27 48 -10 38 14 -9 12 -1 -8 37 -10 18 -18 43 -17 55 1 12 -1 20 -6 17 -15
-9 -29 34 -29 90 0 30 -4 66 -10 81 -5 14 -11 57 -12 95 -3 56 -6 70 -20 73
-11 3 -18 15 -18 29 0 12 -11 55 -24 93 -13 39 -27 90 -30 115 -7 46 -29 146
-45 210 -6 19 -15 68 -21 107 -8 47 -16 73 -25 73 -7 0 -12 10 -11 25 0 14 6
25 13 25 7 0 10 7 6 16 -5 13 -8 13 -15 2 -7 -9 -8 -7 -3 7 17 46 17 57 4 66
-12 7 -12 9 1 9 8 0 23 14 33 32 14 25 20 29 27 18 7 -11 13 -7 27 18 10 18
21 32 26 32 4 0 35 20 69 45 34 25 66 45 70 45 5 0 20 11 34 25 13 13 43 30
67 36 23 7 49 18 58 26 8 7 21 13 27 13 7 0 29 9 49 20 21 11 45 20 54 20 9 0
22 7 29 15 7 8 27 15 45 15 18 0 38 7 45 15 6 7 33 25 58 37 26 13 124 65 217
115 94 50 181 94 195 98 25 8 25 8 6 -14 -11 -11 -23 -21 -27 -21 -4 0 -31
-16 -60 -35 -30 -19 -57 -35 -61 -35 -4 0 -36 -17 -70 -38 -35 -21 -75 -43
-89 -49 -37 -16 -33 -40 5 -38 17 1 38 4 46 8 52 22 168 60 187 60 14 0 20 4
16 11 -3 6 -1 6 7 -1 11 -10 11 -16 -3 -31 -9 -10 -17 -22 -17 -26 0 -4 -12
-18 -27 -32 -15 -14 -28 -33 -28 -42 0 -9 -12 -23 -27 -30 -16 -7 -28 -17 -28
-21 0 -5 -9 -11 -19 -14 -12 -3 -21 -15 -23 -33 -2 -23 -14 -36 -58 -61 -30
-18 -64 -40 -75 -48 -11 -9 -37 -21 -57 -27 -21 -6 -38 -15 -38 -20 0 -5 -8
-7 -17 -4 -21 6 -85 -23 -91 -41 -2 -8 6 -13 21 -13 14 0 27 -6 30 -14 6 -14
30 -15 60 -2 37 17 27 -4 -12 -23 -49 -25 -53 -26 -49 -4 2 10 -4 19 -15 21
-14 3 -16 0 -8 -20 7 -18 4 -29 -10 -47 -10 -12 -23 -20 -28 -17 -5 3 -19 -3
-32 -13 -13 -10 -34 -21 -47 -25 -20 -7 -79 -57 -74 -63 7 -10 -1 -11 -20 -4
-30 11 -48 4 -48 -20 0 -17 3 -17 20 -7 10 7 22 10 25 7 10 -11 -6 -37 -26
-42 -20 -5 -27 -27 -8 -27 5 0 7 -4 4 -10 -3 -5 -15 -10 -26 -10 -13 0 -18 4
-13 12 4 7 3 8 -4 4 -7 -4 -12 -17 -12 -29 0 -13 -9 -31 -21 -41 -13 -11 -19
-25 -16 -37 4 -13 -3 -25 -19 -36 -22 -14 -54 -61 -54 -78 0 -3 25 10 55 30
31 19 59 35 64 35 4 0 16 10 27 21 21 24 71 58 180 123 27 16 78 47 114 70 36
23 81 48 100 56 19 7 44 21 55 30 44 36 75 50 99 44 23 -5 40 8 41 31 0 6 9
10 20 11 38 0 146 27 158 38 17 16 57 18 57 3 0 -7 -20 -28 -45 -47 -25 -19
-45 -37 -45 -40 0 -4 -10 -12 -22 -19 -13 -6 -36 -20 -53 -30 -16 -11 -59 -33
-94 -50 -35 -17 -94 -51 -131 -76 -37 -25 -73 -45 -79 -45 -6 0 -11 -5 -11
-11 0 -6 -6 -9 -14 -6 -10 4 -14 0 -13 -14 2 -22 20 -25 36 -5 7 8 23 17 36
20 14 4 46 20 72 36 51 32 68 36 79 18 4 -7 3 -8 -4 -4 -7 4 -12 1 -12 -6 0
-8 -14 -22 -32 -32 -17 -11 -39 -25 -47 -32 -9 -7 -27 -22 -41 -33 l-25 -20
23 -1 c12 0 25 -7 28 -15 4 -8 10 -15 16 -15 5 0 7 4 4 9 -6 10 69 92 77 84 3
-2 8 5 12 16 4 14 15 21 31 21 13 0 24 4 24 9 0 5 12 12 27 16 14 3 38 15 51
26 14 10 30 19 36 19 6 0 3 -7 -6 -14 -10 -7 -15 -16 -12 -19 8 -8 -32 -28
-48 -24 -7 2 -10 2 -5 0 15 -9 6 -21 -33 -38 -23 -10 -36 -21 -30 -25 6 -4
-11 -21 -37 -41 -27 -18 -49 -33 -51 -31 -1 1 -9 -3 -17 -10 -33 -30 -45 -38
-55 -38 -5 0 -10 6 -10 13 0 6 -6 1 -13 -12 -6 -13 -33 -36 -58 -50 -25 -14
-63 -37 -85 -51 -21 -14 -46 -23 -54 -21 -8 1 -12 0 -8 -5 10 -10 -29 -37 -42
-29 -6 3 -10 2 -10 -4 0 -5 -9 -13 -20 -16 -26 -8 -77 -55 -61 -55 7 0 10 -4
6 -10 -3 -5 -13 -6 -21 -3 -9 3 -20 0 -25 -8 -6 -10 -9 -10 -9 -2 0 7 -7 10
-15 7 -8 -4 -15 -10 -15 -15 0 -4 6 -6 13 -4 19 7 38 -10 32 -27 -4 -9 -16
-19 -28 -22 -17 -5 -19 -8 -8 -15 11 -7 9 -14 -14 -35 -15 -14 -25 -29 -22
-32 3 -3 35 22 70 56 36 34 76 69 89 79 14 9 93 62 177 119 84 56 159 102 167
102 8 0 22 9 32 21 9 11 40 32 67 45 60 30 86 45 100 60 13 13 93 64 100 64 4
0 23 16 43 35 25 24 44 34 58 32 15 -3 27 5 38 25 10 15 21 28 26 28 5 0 18
10 29 21 11 12 26 19 35 16 9 -4 19 0 23 7 5 7 23 21 42 31 19 9 45 28 59 40
15 14 31 21 41 17 14 -6 14 -7 -1 -10 -10 -2 -18 -9 -18 -16 0 -7 -11 -23 -25
-36 -31 -29 -32 -43 -2 -35 12 3 5 -4 -15 -15 -21 -11 -38 -25 -38 -31 0 -5
-8 -12 -17 -16 -39 -14 -210 -156 -195 -161 16 -5 -59 -69 -104 -90 -21 -9
-58 -30 -82 -45 -23 -15 -59 -35 -80 -45 -20 -9 -45 -27 -54 -38 -13 -16 -27
-21 -50 -19 -20 2 -43 -5 -60 -16 -15 -11 -42 -26 -60 -35 -107 -50 -328 -210
-328 -238 0 -8 3 -8 8 1 4 7 24 14 45 16 20 2 43 10 51 16 18 15 76 32 76 22
0 -4 -5 -12 -12 -19 -18 -18 0 -28 25 -12 12 7 36 21 54 30 18 8 48 34 68 57
19 23 61 56 93 73 56 30 209 91 287 114 22 6 46 15 54 20 41 26 261 134 286
140 17 4 37 14 45 21 20 18 298 145 317 145 9 0 13 -6 10 -14 -11 -28 20 -40
63 -26 49 16 58 10 25 -18 -14 -12 -25 -19 -25 -15 0 3 -11 -6 -25 -21 -13
-14 -31 -26 -39 -26 -23 0 -126 -68 -126 -83 0 -7 -38 -25 -87 -40 -49 -16
-95 -35 -103 -44 -13 -15 -12 -16 4 -10 23 9 49 -16 33 -32 -6 -6 -21 -11 -33
-11 -13 0 -26 -5 -29 -10 -4 -6 -10 -8 -15 -5 -9 6 -120 -31 -134 -45 -6 -6
-20 -10 -33 -10 -13 0 -26 -7 -30 -16 -5 -14 -35 -30 -150 -79 -23 -10 -39
-23 -37 -30 3 -7 -10 -18 -28 -25 -29 -12 -78 -53 -78 -66 0 -2 6 -4 14 -4 7
0 19 -7 26 -15 10 -12 10 -15 -4 -15 -9 0 -16 -6 -16 -14 0 -19 32 -30 42 -14
5 9 8 6 8 -10 0 -17 -7 -24 -30 -28 -17 -4 -30 -11 -30 -16 0 -6 -6 -8 -14 -5
-8 3 -17 0 -20 -8 -2 -7 -13 -11 -23 -9 -14 4 -19 -1 -20 -16 -1 -16 2 -20 13
-16 9 3 27 9 40 12 13 3 22 10 19 14 -3 5 3 8 14 7 15 -1 17 -5 10 -18 -12
-22 -12 -32 0 -24 5 3 12 1 16 -5 4 -6 -6 -10 -25 -10 -18 0 -29 -4 -25 -10 3
-6 -1 -7 -9 -4 -10 4 -16 1 -16 -9 0 -10 -7 -13 -20 -10 -10 3 -32 -4 -47 -15
-34 -24 -100 -48 -109 -40 -12 13 17 48 41 48 30 0 33 16 4 23 -11 3 -22 0
-25 -7 -3 -7 -10 -13 -17 -13 -14 0 -73 -25 -131 -55 -32 -17 -40 -18 -47 -7
-6 10 -3 15 9 17 9 2 24 6 32 9 8 3 18 5 23 5 4 -1 7 2 7 8 0 5 34 26 75 46
81 40 95 52 74 64 -17 11 -52 -7 -43 -22 4 -6 3 -8 -4 -4 -6 3 -23 1 -39 -5
-15 -6 -37 -13 -48 -15 -11 -2 -31 -12 -45 -22 -14 -10 -38 -22 -55 -26 -38
-9 -65 -34 -65 -58 0 -10 -5 -18 -11 -18 -8 0 -8 -4 -2 -12 12 -16 13 -49 1
-42 -4 3 -8 -2 -8 -10 0 -8 -9 -17 -19 -21 -20 -6 -36 -34 -25 -44 4 -3 9 0
11 7 5 14 53 17 53 2 0 -5 -8 -6 -17 -3 -12 5 -15 2 -10 -10 4 -11 2 -14 -8
-11 -11 5 -12 0 -5 -25 5 -19 5 -29 -1 -26 -13 9 -11 -9 4 -24 10 -10 8 -11
-8 -5 -11 4 -17 4 -13 0 4 -5 3 -18 -2 -30 -6 -18 -5 -22 8 -21 24 2 58 22 50
30 -6 7 67 75 112 105 12 8 29 21 37 29 20 19 58 41 179 101 56 28 111 60 122
70 13 12 35 20 55 20 25 0 36 5 40 18 2 11 14 21 26 25 13 3 19 1 15 -5 -4 -6
-1 -8 7 -6 8 3 13 10 12 15 -1 6 10 16 24 22 23 10 25 10 14 -2 -9 -12 -8 -16
3 -20 9 -4 18 -2 21 2 3 5 13 7 23 4 11 -2 43 7 73 22 30 14 71 32 92 40 32
11 36 11 26 -1 -6 -8 -17 -14 -24 -14 -7 0 -21 -11 -31 -25 -10 -14 -25 -23
-32 -20 -20 7 -54 -14 -48 -31 3 -8 2 -14 -3 -14 -4 0 -26 -17 -47 -37 -21
-20 -31 -34 -21 -30 10 4 27 7 36 7 10 0 30 11 45 25 39 36 76 59 83 52 3 -4
-11 -16 -31 -28 -20 -11 -33 -25 -30 -30 3 -5 -2 -9 -10 -9 -9 0 -15 -6 -14
-13 2 -6 -3 -11 -9 -9 -7 1 -13 -6 -13 -17 0 -22 -46 -55 -66 -47 -8 3 -17 -1
-20 -9 -3 -8 -13 -11 -22 -8 -11 4 -9 -1 6 -15 13 -11 19 -23 13 -26 -5 -3
-16 0 -23 7 -11 12 -16 12 -26 0 -17 -18 -42 -17 -42 3 0 13 -5 12 -26 -5 -15
-12 -41 -21 -58 -21 l-31 0 25 20 c14 11 31 20 38 20 7 0 10 5 7 10 -4 6 -11
8 -16 5 -5 -4 -9 -1 -9 4 0 18 -35 12 -58 -10 -12 -11 -27 -17 -32 -14 -6 4
-24 -1 -42 -9 -39 -20 -54 -20 -38 -1 18 22 -1 18 -30 -6 -23 -19 -23 -20 -3
-14 28 8 35 -5 17 -30 -8 -10 -14 -13 -14 -6 0 6 -6 11 -12 9 -7 -1 -23 3 -36
10 -12 7 -27 10 -32 7 -16 -10 1 -35 24 -36 20 0 20 -1 1 -9 -31 -13 -45 -12
-39 5 12 29 -32 13 -90 -34 -28 -21 -30 -22 -36 -5 -6 17 -10 13 -20 -21 -2
-5 -22 -28 -44 -50 l-41 -40 2 -73 c2 -81 15 -106 50 -99 28 5 39 -8 23 -28
-10 -12 -9 -15 4 -15 9 0 16 5 16 11 0 5 4 7 10 4 5 -3 20 1 32 9 25 18 42 21
33 6 -3 -6 1 -7 9 -4 9 3 16 10 16 16 0 5 -5 6 -10 3 -6 -3 -10 -1 -10 5 0 7
8 9 19 5 11 -3 22 -1 26 5 3 6 10 8 15 5 5 -3 16 5 24 17 9 12 16 19 16 14 0
-5 9 2 19 16 11 13 39 33 63 43 24 11 45 22 48 25 3 3 23 18 45 35 22 16 43
33 46 38 4 5 12 6 18 3 6 -4 11 -4 11 1 0 4 21 21 48 37 26 16 70 44 99 63 28
18 54 33 58 33 4 0 19 8 33 19 60 42 305 171 325 171 8 0 20 7 27 15 7 8 31
20 53 26 23 6 57 24 75 40 35 31 42 34 42 21 0 -5 -12 -14 -26 -21 -15 -6 -24
-14 -22 -16 11 -12 211 40 262 67 l39 21 17 -20 c12 -15 24 -19 43 -16 15 3
30 9 33 14 3 5 16 9 29 9 13 0 26 6 29 13 5 9 7 9 12 -1 3 -6 10 -10 15 -6 5
3 9 0 9 -6 0 -7 -8 -9 -19 -5 -10 3 -24 -1 -31 -10 -11 -13 -10 -15 6 -10 10
3 4 -2 -13 -11 -18 -10 -33 -20 -33 -24 0 -3 25 -6 57 -6 36 1 58 -3 60 -11 3
-7 11 -13 19 -13 9 0 12 -4 9 -10 -10 -16 7 -12 43 10 20 12 30 25 26 32 -5 8
0 9 15 5 13 -3 20 -3 17 0 -11 11 16 33 40 33 17 0 24 -6 24 -19 0 -20 25 -35
41 -25 16 10 10 24 -8 18 -14 -5 -15 -4 -4 4 8 6 21 8 30 5 10 -3 8 3 -6 15
-23 20 -33 49 -13 37 6 -3 23 3 38 14 16 11 40 23 55 26 15 4 24 12 21 17 -4
6 2 8 15 3 13 -4 28 -1 38 6 8 7 27 14 42 15 14 1 19 0 10 -2 -22 -6 -32 -44
-13 -44 8 0 14 5 14 10 0 6 7 10 15 10 17 0 19 -11 5 -28 -7 -9 -7 -9 2 -2 7
6 20 10 30 10 10 0 18 4 18 9 0 13 58 32 65 20 9 -14 44 -11 76 8 20 12 32 14
39 7 7 -7 -7 -27 -45 -63 -47 -44 -58 -51 -71 -40 -8 7 -13 18 -10 26 7 18
-22 29 -37 14 -8 -8 -8 -11 1 -11 9 0 12 -14 10 -40 -1 -30 -6 -40 -18 -40 -9
0 -25 -9 -35 -20 -10 -11 -20 -18 -23 -15 -3 2 -13 0 -24 -6 -17 -9 -18 -8 -6
11 7 11 21 23 31 26 13 4 16 9 9 16 -6 6 -8 17 -5 25 5 13 2 13 -16 4 -12 -7
-25 -19 -27 -26 -9 -22 -76 -58 -111 -60 -18 -1 -30 2 -27 7 3 4 1 8 -5 8 -5
0 -11 -6 -14 -12 -2 -7 -7 -10 -11 -7 -3 3 2 15 11 26 13 14 27 19 47 16 22
-3 27 -1 23 11 -4 9 -1 21 6 28 7 7 18 21 26 31 13 17 13 17 -12 6 -16 -7 -27
-20 -27 -31 0 -15 -5 -18 -22 -13 -15 6 -20 4 -16 -6 4 -10 -4 -15 -23 -16
-15 -1 -38 -12 -49 -23 -14 -14 -28 -19 -43 -15 -15 4 -18 3 -9 -3 11 -7 8
-14 -14 -31 -15 -12 -34 -19 -41 -17 -7 3 -12 2 -10 -2 4 -14 -137 -128 -218
-177 l-30 -19 23 23 c27 27 29 39 3 20 -10 -8 -56 -40 -102 -71 -46 -32 -100
-71 -119 -88 -19 -16 -38 -30 -41 -30 -4 0 -22 -13 -40 -30 -19 -16 -40 -30
-46 -30 -7 0 -13 -10 -13 -22 0 -21 0 -21 27 3 15 13 32 29 38 35 11 11 109
83 136 99 10 6 32 20 50 33 29 19 28 18 -5 -10 -119 -101 -141 -118 -148 -118
-4 0 -8 -7 -8 -15 0 -8 -5 -15 -12 -15 -6 0 -8 -3 -5 -6 8 -9 -44 -50 -59 -46
-15 3 -39 -26 -39 -47 0 -9 -6 -15 -12 -13 -7 1 -13 -2 -13 -7 0 -5 -9 -13
-20 -16 -11 -3 -20 -11 -20 -16 0 -5 17 -1 38 10 77 41 328 159 349 165 11 4
27 13 33 21 7 8 19 15 27 15 8 0 45 20 81 44 37 24 78 47 92 51 14 4 33 14 43
23 9 8 17 12 17 7 0 -4 6 -3 13 3 6 5 37 24 69 41 43 24 62 29 79 23 24 -9 99
14 99 30 0 5 5 6 10 3 6 -3 10 0 10 8 0 22 53 66 90 73 22 5 51 25 87 62 29
30 53 51 53 47 0 -5 5 -4 12 3 17 17 48 15 48 -3 0 -20 -45 -65 -65 -65 -8 0
-15 -4 -15 -8 0 -5 -23 -19 -51 -32 -29 -13 -59 -30 -68 -39 -25 -24 -96 -71
-108 -71 -6 0 -16 -7 -23 -15 -8 -10 -9 -15 -2 -15 6 0 9 -6 7 -12 -4 -9 6
-13 32 -12 24 1 37 6 35 14 -1 6 1 9 6 6 9 -5 89 20 107 33 5 5 29 11 51 15
31 4 43 2 47 -8 7 -17 -5 -28 -51 -46 -22 -8 -31 -18 -28 -27 3 -8 2 -12 -3
-9 -5 3 -21 -5 -36 -18 -16 -14 -49 -30 -74 -36 -30 -7 -41 -14 -32 -19 18
-11 -27 -22 -57 -14 -16 4 -22 1 -22 -10 0 -10 -13 -18 -35 -23 -19 -3 -35
-10 -35 -15 0 -8 53 -4 92 7 9 3 25 7 35 9 10 2 26 6 36 10 32 13 17 -2 -35
-35 -40 -25 -48 -35 -35 -38 29 -6 14 -24 -21 -27 -35 -3 -112 -51 -111 -69 0
-7 3 -6 6 2 2 6 17 12 31 11 26 0 27 0 4 -9 -12 -5 -25 -16 -28 -25 -4 -8 -14
-15 -23 -15 -20 0 -63 -29 -57 -38 2 -4 -7 -15 -19 -25 -16 -11 -26 -13 -30
-6 -4 6 2 13 14 16 20 5 30 23 13 23 -22 0 -45 -28 -40 -48 5 -19 -1 -24 -43
-39 -28 -10 -47 -23 -45 -29 5 -14 -13 -34 -32 -34 -8 0 -27 -11 -43 -24 -15
-13 -47 -27 -69 -31 -28 -5 -40 -11 -36 -20 5 -14 -33 -35 -63 -35 -10 0 -21
-9 -24 -21 -3 -11 -11 -19 -19 -17 -11 2 -105 -29 -118 -40 -3 -2 3 -9 13 -17
15 -11 16 -13 2 -19 -8 -3 -15 -12 -15 -21 0 -13 44 -15 365 -15 237 0 365 4
365 10 0 6 7 10 16 10 8 0 12 -5 9 -10 -4 -6 8 -10 30 -10 22 0 34 4 30 10 -4
6 -11 8 -16 5 -5 -4 -9 0 -9 7 0 16 115 62 136 54 8 -3 13 -2 10 2 -3 4 34 22
82 40 105 38 118 41 114 24 -1 -6 2 -12 8 -12 5 0 10 8 10 19 0 10 8 21 18 24
9 3 61 22 116 41 54 20 101 36 105 36 3 -1 -14 -12 -39 -26 -25 -14 -38 -23
-30 -21 9 3 23 -1 32 -7 15 -11 14 -14 -13 -30 -17 -10 -29 -13 -29 -6 0 6 10
15 23 20 13 5 16 9 7 9 -15 1 -45 -17 -80 -46 -8 -7 -24 -20 -35 -28 -12 -10
-4 -8 22 5 23 11 48 20 55 20 7 0 35 9 63 20 147 57 187 71 192 66 7 -6 -42
-30 -107 -51 -67 -22 -102 -44 -93 -58 3 -5 2 -8 -3 -5 -5 3 -18 -4 -28 -15
-19 -20 -19 -20 2 -15 12 4 20 2 16 -3 -3 -5 -11 -9 -18 -9 -8 0 -20 -8 -27
-17 -10 -11 -10 -14 -1 -9 6 4 12 3 12 -1 0 -5 -16 -15 -36 -24 -35 -15 -33
-15 101 -18 100 -1 141 1 153 11 11 9 14 9 8 1 -5 -10 19 -12 106 -12 95 0
118 3 148 21 l35 20 -25 -21 -25 -21 1741 0 c1672 0 1742 1 1757 18 9 10 32
50 51 90 33 66 36 81 46 219 15 216 19 245 52 383 32 130 57 191 132 323 79
136 120 188 304 376 l122 125 0 4233 0 4233 -5000 0 -5000 0 0 -5000z m5501
2803 c13 -16 12 -17 -3 -4 -10 7 -18 15 -18 17 0 8 8 3 21 -13z m129 -250 c0
-8 -38 17 -51 33 -9 11 -2 9 19 -6 17 -13 32 -25 32 -27z m-2370 -143 c0 -5
-10 -10 -22 -9 -22 0 -22 1 -3 9 11 5 21 9 23 9 1 1 2 -3 2 -9z m355 -18 c-3
-3 -11 0 -18 7 -9 10 -8 11 6 5 10 -3 15 -9 12 -12z m78 -33 c19 -18 19 -18
-2 -12 -11 3 -21 9 -21 14 0 5 -9 9 -20 9 -11 0 -20 7 -20 15 0 13 4 14 22 4
12 -6 30 -20 41 -30z m-443 27 c0 -6 -100 -77 -118 -83 -10 -4 10 14 43 40 55
42 75 54 75 43z m35 -40 c-6 -36 -2 -56 21 -107 19 -43 25 -64 17 -66 -14 -5
-1 -33 30 -65 23 -25 22 -7 -3 25 -24 30 -26 45 -5 27 20 -17 19 -12 -9 46
-13 27 -27 65 -31 84 -7 33 -7 34 11 20 16 -14 17 -13 11 3 -4 11 -3 16 3 12
6 -3 10 -12 10 -19 0 -18 31 -77 52 -100 25 -28 32 -14 8 16 -17 22 -41 73
-42 88 0 3 -4 11 -10 18 -6 7 -8 15 -5 18 3 3 10 -4 17 -15 6 -12 8 -21 5 -21
-3 0 4 -10 16 -22 11 -13 25 -32 29 -43 l9 -20 0 20 c1 11 -4 36 -9 56 -6 22
-7 46 -2 60 9 23 10 22 31 -19 21 -42 35 -51 44 -32 3 6 4 5 3 -2 -2 -7 6 -23
17 -35 11 -13 16 -23 11 -23 -10 0 -67 54 -89 85 -11 16 -14 17 -15 4 0 -15
57 -99 67 -99 3 0 -1 8 -8 18 -13 15 -12 16 3 3 10 -7 15 -17 13 -22 -3 -4 5
-13 17 -20 21 -11 22 -11 9 4 -11 14 -11 17 0 17 8 0 26 -14 41 -32 l28 -33
-5 45 -5 45 25 -27 c13 -16 27 -28 30 -28 4 0 27 -18 52 -40 25 -22 50 -40 55
-40 5 0 -17 21 -49 46 -65 52 -112 103 -113 122 0 25 24 11 84 -50 34 -36 49
-47 34 -27 -21 28 -24 39 -15 48 9 9 9 11 -3 6 -9 -3 -31 8 -53 26 -37 30 -50
56 -23 46 8 -3 16 -1 18 4 2 7 25 2 58 -10 65 -25 63 -24 55 -8 -4 6 4 1 18
-13 39 -41 104 -97 79 -69 -25 28 -30 48 -7 29 8 -6 19 -10 26 -8 6 2 -6 16
-28 31 -21 15 -32 27 -25 27 7 0 36 -24 64 -52 28 -29 45 -43 39 -30 -12 23
-12 23 13 7 14 -9 30 -14 36 -10 5 3 10 4 10 1 0 -3 -15 -12 -32 -19 l-33 -14
33 0 c17 0 32 4 32 8 0 4 12 1 28 -6 15 -8 36 -12 46 -9 14 5 18 2 13 -9 -4
-11 -2 -14 9 -10 7 3 14 1 14 -5 0 -6 13 -13 30 -17 16 -4 33 -12 37 -19 11
-15 126 -76 147 -76 9 0 16 -4 16 -10 0 -5 5 -10 11 -10 5 0 7 5 4 10 -10 16
29 12 51 -5 18 -14 17 -15 -11 -10 -27 5 -28 5 -7 -5 13 -5 28 -7 33 -4 6 3
25 -6 44 -21 19 -14 35 -24 35 -20 0 3 19 -8 42 -25 22 -16 46 -30 52 -30 6 0
35 -18 64 -40 29 -22 55 -40 59 -40 5 0 68 -45 183 -132 27 -21 53 -38 57 -38
14 -1 196 -154 201 -169 3 -8 0 -11 -6 -7 -6 3 -13 2 -17 -4 -3 -5 -1 -10 6
-10 7 0 9 -3 6 -7 -4 -3 -19 4 -34 18 -15 14 -24 18 -21 9 4 -12 -4 -15 -44
-14 -29 0 -56 -5 -63 -13 -16 -15 -29 -18 -20 -4 7 13 -86 2 -103 -11 -7 -6
-15 -8 -19 -5 -3 4 -13 1 -21 -6 -13 -9 -14 -9 -8 1 4 7 2 12 -8 12 -8 0 -18
-4 -21 -10 -3 -5 -13 -10 -21 -10 -8 0 -13 4 -9 10 3 5 -17 -6 -46 -25 -28
-19 -57 -35 -65 -35 -8 0 -22 -4 -32 -9 -9 -5 -28 -14 -42 -20 -65 -30 -103
-58 -95 -71 2 -3 -11 -6 -28 -7 -17 -1 -35 -7 -41 -13 -5 -5 -21 -10 -34 -10
-13 0 -21 -4 -17 -10 3 -5 13 -6 23 -3 15 6 15 5 3 -10 -7 -9 -22 -17 -32 -17
-19 0 -34 -15 -22 -23 5 -2 3 -2 -4 -1 -6 2 -17 -4 -24 -12 -7 -8 -18 -13 -25
-10 -8 3 -18 -4 -24 -14 -6 -11 -14 -19 -19 -17 -5 1 -39 -27 -75 -62 -62 -59
-87 -73 -49 -27 10 12 2 7 -17 -11 -20 -18 -50 -37 -67 -43 -21 -8 -30 -16
-26 -26 3 -8 0 -14 -6 -14 -6 0 -11 5 -11 10 0 6 -4 10 -10 10 -5 0 -7 -7 -4
-15 5 -11 2 -13 -12 -8 -10 4 -15 2 -11 -4 3 -5 -6 -16 -20 -24 -15 -8 -38
-24 -51 -37 -16 -14 -29 -19 -36 -13 -17 14 -34 -11 -30 -43 3 -26 1 -27 -14
-14 -33 29 -47 31 -22 3 l25 -28 -33 17 c-19 10 -36 15 -39 13 -2 -3 5 -8 17
-12 12 -4 19 -12 17 -19 -7 -17 28 -46 54 -46 11 0 17 -4 14 -10 -3 -5 -1 -10
6 -10 7 0 9 -3 6 -6 -4 -4 -13 -2 -21 5 -15 12 -102 18 -113 7 -4 -3 12 -6 34
-6 22 0 56 -7 74 -15 34 -16 34 -16 4 -9 -16 3 -52 8 -80 9 l-49 3 24 -19 c14
-11 38 -22 53 -26 15 -3 33 -13 40 -23 14 -20 49 -33 91 -35 16 0 31 -6 34
-13 2 -7 13 -12 25 -11 21 0 21 1 2 9 -12 5 -15 9 -5 9 19 1 1 18 -25 24 -11
2 -1 2 23 0 39 -4 59 9 30 20 -7 2 -2 3 12 1 35 -4 52 8 44 31 -6 15 -4 17 14
13 12 -4 22 -2 22 3 0 5 -4 9 -10 9 -5 0 -10 4 -10 9 0 4 12 7 26 5 20 -2 24
1 19 14 -5 13 -1 12 17 -4 18 -15 20 -16 9 -1 -16 20 -12 27 18 30 11 1 21 7
21 14 0 12 13 18 34 14 5 -1 6 7 4 17 -3 11 -2 26 3 33 6 10 9 11 9 2 0 -7 5
-13 10 -13 6 0 10 7 10 16 0 9 5 12 12 8 8 -5 9 -2 5 9 -7 18 24 42 38 29 5
-4 5 -1 1 5 -5 8 3 17 21 25 15 7 50 33 76 58 27 25 53 45 59 45 6 0 21 18 33
39 12 22 31 50 42 62 11 13 23 29 26 38 7 18 47 41 47 27 0 -5 -5 -13 -10 -16
-6 -4 -19 -25 -31 -48 l-20 -42 21 24 c11 13 20 20 20 16 0 -5 9 0 20 10 12
10 18 25 16 32 -6 15 27 36 39 25 5 -4 5 -2 1 5 -6 11 24 35 41 32 22 -4 32 2
27 16 -4 9 0 15 10 15 8 0 41 11 72 25 31 14 60 22 65 19 15 -9 91 16 169 55
71 36 126 56 143 53 12 -3 8 10 -10 30 -15 17 -15 18 13 16 20 -1 51 -22 99
-65 38 -35 75 -61 82 -59 7 3 12 1 10 -5 -2 -11 325 -330 332 -323 3 2 -9 19
-25 37 -16 17 -38 43 -49 56 l-20 25 30 -21 c34 -24 184 -170 203 -199 7 -10
10 -12 6 -4 -4 8 7 2 24 -14 17 -16 29 -33 26 -37 -3 -5 8 -17 24 -26 38 -24
213 -185 207 -192 -3 -2 7 -17 22 -33 41 -43 19 -46 -31 -4 -47 38 -86 86 -86
106 0 6 -4 9 -8 6 -5 -3 -41 28 -81 68 -48 48 -68 75 -60 78 9 4 3 10 -16 19
-16 7 -38 19 -47 27 -10 9 -18 11 -18 6 0 -10 39 -38 55 -39 6 -1 9 -5 8 -11
-1 -6 31 -46 72 -90 62 -67 72 -81 59 -91 -9 -6 -11 -14 -6 -17 6 -3 13 1 16
10 5 12 18 4 58 -38 29 -29 52 -56 53 -60 0 -8 15 -23 23 -23 4 0 22 -11 40
-25 22 -16 32 -32 32 -50 0 -37 25 -69 41 -52 18 17 24 15 26 -5 3 -38 10 -56
27 -65 17 -9 17 -9 1 16 -9 14 -15 31 -13 37 2 7 14 -4 26 -24 12 -21 27 -37
34 -37 8 0 9 3 3 8 -6 4 -23 26 -38 50 -28 43 -44 51 -65 30 -9 -9 -12 -9 -12
0 0 7 5 12 10 12 6 0 10 5 10 11 0 6 -8 8 -19 4 -15 -5 -19 -1 -18 14 1 23 4
22 79 -37 32 -25 55 -48 53 -53 -6 -9 34 -33 42 -25 3 3 25 -8 49 -24 24 -17
65 -44 92 -62 53 -36 85 -72 89 -101 3 -17 1 -17 -29 4 -18 13 -70 59 -115
103 -46 44 -83 75 -83 70 0 -20 254 -240 312 -270 54 -28 40 -7 -17 26 -31 18
-54 35 -51 37 3 3 1 14 -5 24 -5 11 -6 19 -2 19 14 0 134 -126 127 -132 -3 -4
8 -14 25 -22 36 -19 57 -51 39 -62 -7 -4 -8 -3 -4 4 4 7 2 12 -4 12 -6 0 -8 5
-5 10 10 17 -4 11 -25 -10 -16 -16 -18 -24 -9 -44 7 -14 17 -22 25 -19 9 3 11
-2 7 -17 -4 -16 -8 -18 -14 -9 -4 8 -11 11 -14 7 -9 -8 46 -58 65 -59 9 0 10
-3 4 -5 -7 -3 -10 -15 -8 -27 2 -12 1 -16 -2 -8 -7 14 -53 61 -61 61 -2 0 2
-9 9 -20 7 -11 17 -20 21 -20 5 0 5 -10 2 -21 -5 -14 -4 -19 4 -15 7 4 9 1 5
-8 -4 -11 -12 -13 -30 -6 -15 6 -24 6 -24 0 0 -6 7 -10 15 -10 8 0 15 -5 15
-11 0 -6 6 -9 14 -6 8 3 17 -1 20 -9 3 -8 1 -14 -5 -14 -7 0 -9 -10 -5 -26 5
-17 3 -24 -6 -23 -7 1 -21 -1 -30 -5 -15 -7 -15 -10 7 -34 14 -15 25 -31 25
-37 0 -5 -5 -3 -10 6 -9 16 -60 54 -60 45 0 -3 6 -11 13 -18 6 -8 17 -23 24
-35 10 -18 10 -20 -8 -16 -22 6 -26 -12 -4 -21 8 -3 15 -11 15 -18 0 -10 -2
-10 -8 -1 -9 14 -52 13 -52 0 0 -5 7 -7 15 -3 23 8 18 -12 -5 -24 -15 -8 -19
-17 -15 -31 5 -14 2 -17 -9 -13 -11 4 -13 0 -9 -18 6 -21 5 -22 -12 -8 -17 14
-18 13 -12 -2 4 -11 2 -18 -6 -18 -7 0 -4 -5 6 -11 9 -5 17 -15 17 -20 0 -6
-5 -7 -10 -4 -12 7 -42 -20 -33 -29 4 -3 -1 -6 -10 -6 -11 0 -15 6 -11 18 5
13 4 14 -4 3 -6 -8 -8 -25 -6 -39 4 -19 1 -23 -11 -18 -11 4 -14 2 -9 -6 5 -8
2 -9 -10 -5 -10 4 -15 3 -11 -4 4 -5 1 -17 -6 -25 -10 -12 -9 -13 7 -7 16 6
17 4 7 -9 -7 -8 -9 -19 -5 -24 4 -4 -1 -2 -10 5 -10 7 -19 10 -19 5 -1 -5 -2
-13 -4 -19 -1 -5 -3 -18 -3 -28 -1 -10 -6 -16 -12 -12 -5 3 -18 -3 -30 -15
-17 -17 -18 -20 -3 -20 13 0 12 -3 -5 -18 -16 -14 -18 -22 -10 -30 9 -9 6 -10
-12 -7 -28 5 -47 -4 -30 -15 18 -11 3 -30 -23 -30 -20 0 -20 0 -1 -15 19 -14
19 -14 -1 -11 -13 3 -27 -6 -39 -23 l-20 -26 22 19 c12 11 25 16 29 12 6 -6
-34 -41 -49 -41 -3 0 -10 -4 -15 -8 -4 -5 -3 -8 2 -7 21 5 27 -1 15 -14 -6 -8
-18 -12 -26 -9 -8 3 -14 0 -14 -7 0 -6 5 -8 10 -5 6 3 10 1 10 -4 0 -6 -4 -11
-9 -11 -5 0 -14 -13 -21 -29 -6 -16 -19 -32 -27 -35 -8 -4 -13 -12 -10 -19 3
-8 1 -20 -4 -28 -6 -10 -9 -10 -9 -1 0 6 -8 12 -17 11 -11 0 -13 -3 -5 -6 28
-11 -5 -73 -39 -73 -5 0 -8 -4 -5 -9 3 -5 -1 -12 -10 -15 -9 -4 -14 -13 -10
-21 3 -9 -1 -18 -9 -21 -8 -4 -12 -10 -9 -15 3 -5 -4 -9 -15 -9 -15 0 -21 -6
-21 -21 0 -13 -4 -18 -12 -13 -8 5 -9 2 -5 -10 5 -12 2 -16 -9 -14 -12 2 -17
-6 -20 -26 -1 -16 -8 -34 -14 -40 -8 -8 -9 -7 -5 5 4 10 1 20 -5 24 -6 3 -10
3 -9 -2 1 -4 -3 -19 -9 -33 -6 -14 -11 -20 -12 -15 0 6 -4 4 -9 -4 -8 -13 -12
-13 -27 0 -10 8 -15 9 -11 3 4 -7 0 -17 -8 -24 -18 -15 -20 -34 -2 -24 8 5 8
2 -2 -9 -7 -9 -20 -17 -27 -17 -8 0 -14 -7 -14 -15 0 -8 -5 -15 -11 -15 -6 0
-8 -7 -5 -16 5 -14 4 -15 -8 -5 -12 10 -14 8 -12 -14 3 -22 1 -23 -12 -13 -13
10 -14 10 -8 1 4 -7 2 -13 -3 -13 -6 0 -11 -9 -11 -20 0 -14 -5 -18 -17 -13
-11 4 -14 3 -9 -5 9 -15 -20 -46 -34 -37 -5 3 -10 -1 -10 -9 0 -9 -4 -16 -10
-16 -5 0 -7 -7 -3 -17 5 -13 2 -15 -15 -11 -20 6 -27 -2 -23 -25 1 -5 -3 -6
-9 -2 -5 3 -13 -1 -16 -10 -6 -14 -8 -14 -18 0 -9 13 -11 11 -12 -10 -1 -16 2
-23 10 -18 6 3 7 2 3 -3 -5 -5 -12 -10 -15 -10 -28 -6 -52 -18 -52 -26 0 -6
-11 -7 -25 -4 -19 5 -23 3 -19 -9 7 -17 -11 -21 -21 -5 -3 6 -11 10 -18 10 -6
0 -3 -6 8 -13 13 -10 15 -16 6 -21 -6 -4 -18 -3 -25 3 -7 6 -16 8 -20 4 -3 -4
-13 2 -22 13 -14 18 -15 18 -4 -4 12 -24 5 -46 -11 -37 -5 4 -9 2 -9 -4 0 -5
6 -12 13 -15 6 -2 2 -4 -10 -2 -12 1 -26 6 -30 11 -5 4 -2 5 6 0 9 -5 12 -4 7
3 -10 16 -63 -12 -71 -37 -4 -12 -12 -18 -21 -14 -7 3 -14 0 -14 -6 0 -6 -5
-11 -11 -11 -6 0 -9 7 -5 15 3 8 1 15 -4 15 -6 0 -10 -7 -10 -15 0 -9 -6 -12
-15 -9 -18 7 -20 -12 -2 -19 6 -3 -3 -4 -20 -3 -18 2 -33 -1 -33 -5 0 -5 5 -9
11 -9 5 0 7 -5 4 -11 -5 -6 -13 -3 -22 10 -8 12 -20 21 -26 20 -9 0 -8 -2 1
-6 19 -8 4 -22 -18 -16 -11 3 -18 8 -16 12 6 9 -36 8 -50 -2 -7 -4 -25 0 -40
8 -16 8 -33 15 -39 15 -14 0 -74 57 -117 110 -28 35 -38 59 -45 107 -8 53 -7
63 6 69 9 4 19 6 24 6 7 -2 11 14 8 31 0 4 6 7 14 7 8 0 12 6 10 13 -3 6 29
39 70 72 41 33 77 68 80 78 4 9 9 16 13 14 4 -2 22 12 41 30 19 18 28 33 21
33 -10 0 -10 3 2 13 9 6 23 24 33 40 17 26 17 27 -1 21 -16 -5 -16 -4 -4 5 8
6 23 11 32 11 9 0 20 5 24 12 4 6 3 8 -4 4 -5 -3 -12 -1 -14 5 -4 13 -68 19
-68 6 0 -5 -7 -7 -15 -3 -9 3 -15 0 -15 -10 0 -8 -4 -13 -9 -10 -11 7 -53 -62
-46 -75 4 -5 0 -6 -7 -4 -8 3 -23 -4 -35 -15 -25 -23 -37 -26 -30 -7 8 22 -70
13 -96 -11 -13 -12 -26 -22 -30 -22 -3 0 -18 19 -32 43 -24 38 -27 36 -9 -8
12 -29 -13 -15 -30 18 -9 17 -14 24 -12 15 7 -23 -3 -23 -21 0 -13 15 -13 15
-3 -6 6 -13 9 -28 7 -35 -2 -7 -10 0 -17 16 -7 15 -17 27 -22 27 -4 0 -8 -12
-8 -27 0 -22 2 -25 10 -13 8 12 10 11 10 -7 0 -26 -15 -39 -26 -22 -4 7 -11
26 -15 43 -8 29 -8 29 -4 -6 4 -43 -11 -52 -18 -10 -4 25 -4 25 -6 -5 -1 -41
18 -85 36 -79 7 3 13 1 13 -5 0 -6 -8 -9 -17 -8 -10 1 -21 1 -25 0 -19 -3 -22
-1 -24 14 -2 13 1 14 12 4 18 -15 18 0 -1 25 -8 11 -15 31 -16 45 l-1 26 -8
-25 c-11 -36 -12 -52 0 -45 6 3 7 -1 4 -9 -3 -9 -11 -16 -17 -16 -6 0 -7 3 -4
7 4 3 2 12 -4 20 -6 7 -9 22 -6 33 3 11 1 36 -3 55 -7 30 -6 34 6 24 8 -6 14
-18 14 -25 0 -8 6 -11 15 -8 8 4 15 15 15 25 0 17 6 21 26 18 4 0 10 5 14 11
5 9 10 6 15 -9 3 -12 11 -18 17 -15 7 4 6 9 -2 14 -9 6 -8 14 6 35 18 27 18
28 -4 21 -30 -10 -82 -57 -82 -75 0 -11 -4 -10 -14 5 -13 17 -12 20 17 36 18
9 25 18 17 18 -8 1 9 10 38 20 29 11 67 31 84 45 18 15 39 24 49 22 10 -3 17
0 16 6 -2 10 69 56 87 57 5 0 2 -8 -5 -17 -10 -14 -8 -13 10 2 22 18 24 18 18
2 -4 -11 -3 -16 4 -12 5 4 7 14 5 23 -5 16 28 34 84 46 8 1 15 9 15 17 0 8 20
24 45 36 24 13 48 30 52 38 5 8 15 12 25 8 11 -4 14 -2 9 5 -4 7 4 14 21 18
27 7 75 34 60 34 -16 0 -22 2 -32 10 -5 4 -19 6 -30 4 -10 -1 -25 2 -32 7 -7
6 -19 7 -30 2 -15 -7 -118 -10 -118 -3 0 1 -21 3 -47 4 -26 1 -50 5 -54 9 -11
10 -26 9 -20 -2 7 -11 -53 -9 -71 2 -6 4 -13 3 -15 -2 -5 -14 -48 -24 -48 -11
0 6 -4 8 -10 5 -16 -10 -12 -33 8 -39 10 -3 6 -4 -8 -3 -17 1 -25 8 -24 20 1
9 0 17 -3 17 -11 0 -49 -24 -56 -37 -5 -8 -17 -11 -33 -7 -13 3 -30 2 -37 -3
-6 -6 -20 -13 -31 -17 -13 -4 -17 -2 -13 8 4 10 1 13 -8 10 -8 -3 -11 -13 -7
-22 5 -14 3 -15 -10 -5 -8 7 -18 10 -21 6 -4 -3 -7 -2 -7 4 0 6 -11 8 -25 5
-14 -2 -25 -11 -25 -18 0 -12 -19 -19 -42 -15 -5 0 -8 -5 -8 -13 0 -13 -24
-25 -65 -31 -11 -1 -35 -6 -52 -10 l-33 -7 0 88 c-1 49 -1 98 -1 109 0 11 3
36 6 55 4 27 3 32 -5 20 -10 -13 -11 -13 -7 0 2 8 12 15 23 15 11 1 18 7 16
15 -10 41 -9 67 4 87 11 18 11 22 -3 27 -11 5 -26 -4 -44 -24 -45 -48 -65 -35
-34 23 10 19 10 26 2 22 -7 -4 -4 0 6 8 9 8 17 19 17 26 0 6 5 11 11 11 5 0 7
6 3 13 -5 8 -2 8 9 -2 14 -11 17 -11 17 1 0 15 9 17 124 18 43 1 75 4 72 8
-10 10 -35 14 -118 19 -67 4 -82 2 -111 -16 -48 -29 -115 -104 -123 -138 -11
-43 -38 -66 -71 -60 -15 3 -36 1 -47 -5 -10 -5 -16 -6 -13 -1 4 5 -7 10 -23
10 -16 0 -27 -3 -25 -7 9 -14 -71 1 -95 18 -14 10 -37 42 -52 72 -16 29 -28
46 -28 36 0 -30 39 -94 73 -120 66 -50 152 -67 240 -47 36 9 52 -1 22 -13 -20
-7 -19 -26 1 -26 11 0 14 -5 10 -16 -4 -11 -2 -15 7 -11 8 3 13 -3 13 -14 0
-11 -7 -19 -15 -19 -9 0 -7 -6 9 -20 17 -14 21 -26 16 -45 -4 -14 -2 -25 3
-25 5 0 11 -8 15 -17 3 -10 9 -25 13 -33 5 -12 4 -13 -9 -3 -8 7 -17 10 -20 7
-3 -2 -8 2 -12 11 -3 9 -2 13 4 10 6 -3 10 -1 10 4 0 6 -8 11 -18 11 -11 0
-27 9 -37 20 -22 25 -41 25 -54 3 -9 -16 -10 -15 -11 6 0 19 -3 21 -14 12 -10
-8 -16 -9 -21 -1 -3 5 -1 10 4 10 19 0 12 28 -9 35 -22 7 -40 0 -40 -16 0 -6
5 -7 12 -3 7 4 8 3 4 -4 -4 -7 -16 -12 -28 -12 -22 0 -78 30 -78 42 0 4 -9 8
-20 8 -10 0 -23 6 -27 13 -12 21 -59 48 -68 40 -4 -5 -5 -2 -1 5 5 8 -6 34
-28 67 -20 30 -36 59 -36 65 0 5 -5 9 -12 8 -14 -4 -47 81 -54 136 -2 23 -7
77 -10 121 -4 67 -3 77 8 64 10 -12 16 -14 24 -5 22 24 33 53 27 74 -3 13 -1
22 6 22 6 0 11 7 11 15 0 8 9 19 20 25 16 9 18 8 14 -5 -4 -8 -1 -15 5 -15 6
0 11 5 11 10 0 6 4 10 9 10 5 0 10 -39 10 -87 1 -47 3 -89 6 -92 3 -3 5 103 5
234 -2 257 -6 280 -57 336 -21 23 -22 27 -8 39 8 7 23 10 34 7 13 -3 18 0 15
12 -17 88 -31 133 -56 174 -15 26 -28 52 -28 57 0 6 -6 10 -14 10 -7 0 -19 7
-26 15 -11 13 -15 13 -22 3 -6 -11 -10 -10 -17 1 -5 7 -14 11 -20 7 -13 -8
-58 14 -100 50 -17 14 -31 23 -31 20 0 -3 -15 3 -34 13 -21 12 -38 16 -47 10
-8 -5 -18 -9 -24 -9 -5 0 -3 4 5 10 8 5 11 13 6 17 -4 4 -13 1 -19 -7 -14 -18
-55 -40 -82 -44 -10 -1 -22 -11 -26 -22 -4 -10 -8 -14 -8 -9 -1 6 -5 4 -10 -4
-8 -12 -14 -13 -36 -3 -24 11 -25 11 -15 -8 8 -16 7 -22 -10 -32 -11 -7 -20
-18 -20 -25 0 -14 -29 -18 -31 -5 0 4 -3 18 -5 32 -2 14 -6 58 -8 98 -2 40
-10 79 -16 87 -19 23 -30 84 -17 92 7 4 2 9 -13 13 -18 4 -26 14 -28 34 -2 18
-11 30 -23 33 -20 5 -27 23 -9 23 6 0 10 7 10 16 0 11 -6 14 -20 9 -15 -5 -20
-2 -20 12 0 10 -7 31 -15 47 -8 15 -12 32 -9 37 3 5 -1 7 -8 4 -13 -5 -98 157
-98 187 0 7 -7 27 -16 43 -8 17 -16 44 -17 60 -2 17 -6 36 -10 43 -5 7 -3 12
4 12 9 0 8 5 -3 18 -8 9 -14 30 -13 45 1 19 -3 26 -12 23 -7 -3 -13 1 -13 9 0
8 4 15 10 15 12 0 8 73 -5 82 -5 4 -3 9 6 13 12 4 15 16 12 43 -2 20 -8 39
-14 40 -6 3 -3 14 6 29 9 13 18 44 19 67 2 23 10 53 18 67 9 13 24 49 34 79
16 49 18 52 25 30 6 -21 14 -11 10 12 0 4 8 12 19 18 11 6 18 15 15 19 -3 5 2
22 10 37 8 16 15 35 15 42 0 6 4 12 8 12 5 0 17 7 28 16 10 8 13 13 7 9 -7 -3
-13 -1 -13 4 0 6 3 11 8 11 4 0 25 27 46 60 25 38 56 70 82 85 24 14 46 31 50
37 4 7 -6 2 -23 -10 -17 -12 -35 -22 -40 -22 -5 0 -22 -13 -38 -30 -16 -16
-36 -30 -44 -30 -11 0 -9 4 6 15 14 10 20 21 16 32 -4 10 -2 14 4 10 6 -4 17
-1 25 6 7 7 22 19 33 26 19 12 19 12 -3 8 -12 -3 -20 -2 -17 3 3 4 16 10 30
13 19 3 25 1 21 -9 -7 -19 -2 -18 18 5 16 18 16 18 -15 15 -26 -3 -29 -2 -19
10 6 8 17 13 23 10 7 -2 18 6 26 18 13 21 13 22 -3 9 -9 -8 -19 -12 -21 -9 -3
3 6 11 20 18 14 7 25 17 25 21 0 4 23 15 50 25 28 10 50 22 50 26 0 5 -9 4
-20 -2 -30 -16 -23 2 11 29 l30 23 -6 -25 c-4 -15 -2 -28 6 -32 8 -5 10 -4 5
4 -6 10 13 71 22 71 2 0 0 -20 -3 -44z m85 30 c0 -2 -7 -7 -16 -10 -8 -3 -12
-2 -9 4 6 10 25 14 25 6z m225 -6 c3 -6 -1 -7 -9 -4 -18 7 -21 14 -7 14 6 0
13 -4 16 -10z m-207 -17 c-1 -10 2 -29 6 -43 6 -23 6 -23 -9 3 -9 16 -14 35
-11 43 7 19 15 18 14 -3z m102 -4 c0 -6 -4 -7 -10 -4 -5 3 -10 11 -10 16 0 6
5 7 10 4 6 -3 10 -11 10 -16z m68 -59 c-1 -17 -5 -30 -10 -30 -5 0 -1 -12 9
-27 16 -27 16 -27 -2 -11 -20 18 -26 59 -11 70 11 8 -22 50 -34 43 -4 -2 -7 2
-7 10 0 11 7 9 28 -6 20 -14 27 -27 27 -49z m2267 30 c10 -11 16 -20 13 -20
-3 0 -13 9 -23 20 -10 11 -16 20 -13 20 3 0 13 -9 23 -20z m-824 -117 c13 -16
12 -17 -3 -4 -10 7 -18 15 -18 17 0 8 8 3 21 -13z m-726 -105 c5 4 5 1 1 -6
-5 -9 -12 -9 -27 -2 -10 6 -19 13 -19 16 0 2 8 0 19 -5 10 -6 22 -7 26 -3z
m-1310 -48 c-3 -5 -12 -10 -18 -10 -7 0 -6 4 3 10 19 12 23 12 15 0z m-5 -34
c0 -2 -8 -10 -17 -17 -16 -13 -17 -12 -4 4 13 16 21 21 21 13z m2145 -566 c3
-6 -1 -7 -9 -4 -18 7 -21 14 -7 14 6 0 13 -4 16 -10z m398 -259 c16 -14 33
-35 39 -46 9 -16 -72 53 -132 114 -22 22 60 -38 93 -68z m-963 -26 c-7 -9 -15
-13 -18 -10 -3 2 1 11 8 20 7 9 15 13 18 10 3 -2 -1 -11 -8 -20z m-242 9 c-4
-3 -12 -6 -20 -7 -7 -2 -33 -13 -58 -26 -32 -17 -40 -18 -30 -6 7 9 27 22 44
30 31 14 74 20 64 9z m-428 -248 c0 -3 -4 -8 -10 -11 -5 -3 -10 -1 -10 4 0 6
5 11 10 11 6 0 10 -2 10 -4z m-160 -206 c13 -8 13 -10 -2 -10 -9 0 -20 5 -23
10 -8 13 5 13 25 0z m110 -20 c13 -8 13 -10 -2 -10 -9 0 -20 5 -23 10 -8 13 5
13 25 0z m2365 -105 c38 -33 107 -95 152 -138 45 -43 89 -80 97 -81 20 -3 67
-47 61 -57 -3 -4 -1 -10 5 -14 5 -3 10 -1 10 6 0 7 3 10 6 6 3 -3 3 -11 -1
-17 -4 -7 -17 -3 -38 12 -18 13 -35 23 -39 23 -14 0 -137 99 -132 107 3 5 18
-5 34 -22 24 -26 50 -39 50 -26 0 3 -62 60 -137 127 -76 67 -147 132 -158 143
l-20 20 20 -15 c11 -8 51 -42 90 -74z m-25 -11 c25 -25 69 -63 97 -86 29 -22
50 -44 47 -49 -9 -15 -18 -11 -63 34 -24 23 -48 43 -52 43 -20 3 -25 6 -48 25
-19 15 -21 23 -12 32 9 9 6 16 -11 29 -13 10 -18 18 -13 18 6 0 31 -21 55 -46z
m-2787 -121 c-7 -2 -19 -2 -25 0 -7 3 -2 5 12 5 14 0 19 -2 13 -5z m-2114
-136 c6 -8 13 -34 16 -59 4 -35 2 -47 -10 -52 -11 -4 -15 1 -15 20 0 13 -7 36
-16 49 -25 38 -3 75 25 42z m5326 -69 c22 -23 29 -34 15 -23 -26 21 -60 56
-60 62 0 8 8 1 45 -39z m-3167 -48 c1 -4 15 -5 30 -2 39 7 19 -11 -53 -47 -41
-21 -62 -27 -66 -19 -9 14 -58 17 -66 4 -3 -5 -1 -6 5 -2 7 4 12 2 12 -4 0
-14 -43 -30 -54 -20 -11 11 71 90 104 101 27 8 83 1 88 -11z m207 -10 c-18 -7
-19 -8 -3 -15 10 -4 36 -5 58 -3 22 2 40 1 40 -3 0 -9 -39 -19 -77 -19 -17 0
-34 -4 -37 -9 -5 -8 -86 -21 -86 -13 0 2 13 8 29 13 15 6 33 21 39 34 8 16 19
25 34 24 22 0 22 -1 3 -9z m3065 -45 c13 -14 21 -25 18 -25 -2 0 -15 11 -28
25 -13 14 -21 25 -18 25 2 0 15 -11 28 -25z m70 -70 c19 -19 32 -35 29 -35 -3
0 -20 16 -39 35 -19 19 -32 35 -29 35 3 0 20 -16 39 -35z m-3127 11 c4 -9 14
-12 26 -9 24 6 28 -9 7 -26 -20 -17 -56 3 -56 29 0 23 15 27 23 6z m57 -71 c0
-8 -7 -15 -15 -15 -8 0 -15 7 -15 15 0 8 7 15 15 15 8 0 15 -7 15 -15z m3131
-2 c13 -16 12 -17 -3 -4 -10 7 -18 15 -18 17 0 8 8 3 21 -13z m-61 -66 c0 -4
-6 -2 -14 5 -8 7 -12 17 -9 22 5 8 23 -12 23 -27z m81 6 c13 -16 12 -17 -3 -4
-10 7 -18 15 -18 17 0 8 8 3 21 -13z m-48 -7 c4 -10 1 -13 -8 -9 -8 3 -12 9
-9 14 7 12 11 11 17 -5z m-3 -66 c0 -5 -2 -10 -4 -10 -3 0 -8 5 -11 10 -3 6
-1 10 4 10 6 0 11 -4 11 -10z m-4245 -10 c-3 -5 -11 -10 -16 -10 -6 0 -7 5 -4
10 3 6 11 10 16 10 6 0 7 -4 4 -10z m-1139 -57 c-1 -20 -24 -48 -32 -40 -3 2
-2 16 2 31 7 29 33 36 30 9z m5414 -54 c0 -14 -17 -10 -23 5 -4 10 -1 13 9 9
7 -3 14 -9 14 -14z m-4450 -9 c0 -5 -5 -10 -11 -10 -5 0 -7 5 -4 10 3 6 8 10
11 10 2 0 4 -4 4 -10z m-930 -33 c0 -7 -9 -20 -20 -30 -19 -16 -20 -16 -20 1
0 19 18 42 32 42 4 0 8 -6 8 -13z m-190 -27 c0 -5 -5 -10 -11 -10 -5 0 -7 5
-4 10 3 6 8 10 11 10 2 0 4 -4 4 -10z m5528 -30 c8 0 13 -3 9 -6 -10 -10 -48
7 -40 19 5 8 8 8 11 -1 2 -7 11 -12 20 -12z m-4578 -30 c0 -5 -4 -10 -10 -10
-5 0 -10 5 -10 10 0 6 5 10 10 10 6 0 10 -4 10 -10z m-737 -16 c8 -8 -3 -34
-14 -34 -5 0 -9 9 -9 20 0 19 11 26 23 14z m127 -108 c30 -4 27 -55 -6 -92
-58 -66 -50 -86 24 -61 34 12 39 12 35 0 -9 -23 47 -4 84 27 17 15 45 36 62
46 17 10 31 22 31 26 0 4 6 8 14 8 8 0 31 9 50 21 20 12 36 18 36 14 0 -3 7 1
16 9 17 17 40 21 48 8 7 -12 -10 -35 -21 -29 -6 4 -19 -3 -31 -13 -12 -11 -24
-20 -27 -20 -4 0 -34 -16 -68 -36 -34 -20 -67 -37 -74 -37 -7 0 -10 -4 -7 -9
4 -5 -4 -20 -15 -32 l-22 -23 21 -6 c18 -5 20 -9 11 -25 -6 -11 -18 -28 -28
-37 -13 -13 -13 -19 -4 -25 10 -6 10 -9 1 -15 -9 -6 -9 -9 0 -15 8 -5 7 -17
-6 -43 -10 -20 -15 -39 -12 -42 3 -3 32 7 64 24 33 16 71 33 86 36 16 4 26 11
23 15 -3 4 3 11 12 14 9 4 20 1 24 -6 5 -8 3 -14 -6 -16 -9 -2 -12 -8 -9 -13
3 -6 -8 -22 -25 -36 -17 -14 -31 -31 -31 -37 0 -6 5 -4 10 4 5 8 10 11 10 6 0
-5 -15 -23 -34 -40 -18 -17 -47 -52 -64 -77 -17 -25 -37 -51 -46 -58 -22 -18
-20 -33 2 -22 9 5 28 13 42 18 14 5 52 23 84 39 76 37 76 37 76 27 0 -5 -34
-37 -75 -72 -71 -59 -96 -101 -60 -101 8 0 66 23 129 50 63 28 122 50 130 50
9 0 16 5 16 10 0 6 13 8 29 5 22 -4 30 -1 33 13 3 10 11 19 19 19 8 0 24 3 37
7 16 6 22 3 22 -8 0 -9 -4 -16 -10 -16 -5 0 -10 -12 -11 -27 0 -24 -2 -25 -11
-12 -10 14 -17 10 -52 -29 -23 -24 -59 -53 -81 -63 -37 -18 -88 -51 -127 -84
-9 -7 -18 -11 -20 -9 -3 2 -15 -8 -29 -23 -21 -23 -22 -25 -4 -18 11 4 28 10
38 12 9 3 17 9 17 14 0 12 63 8 71 -4 3 -5 9 -1 12 8 4 9 3 13 -3 10 -6 -3
-10 1 -10 9 0 9 7 16 15 16 8 0 15 -4 15 -10 0 -20 38 -9 66 20 16 16 35 30
42 30 6 0 12 5 12 11 0 5 5 7 12 3 7 -5 9 0 6 14 -4 14 0 22 13 25 12 3 17 1
12 -6 -3 -6 9 1 29 16 35 27 68 35 68 18 0 -5 -8 -11 -17 -14 -15 -3 -14 -6 6
-14 l24 -9 -27 -21 c-14 -12 -26 -26 -26 -32 0 -15 -17 -14 -23 2 -3 7 -6 5
-6 -5 -1 -10 -5 -18 -11 -18 -11 0 -280 -262 -280 -273 0 -4 17 0 38 9 20 9
43 18 50 21 6 3 12 9 12 13 0 4 15 17 33 29 65 42 88 58 115 82 15 13 47 37
72 53 25 16 49 35 53 43 4 7 14 13 21 13 8 0 19 7 27 16 24 29 118 86 130 78
8 -4 9 -3 5 5 -8 12 10 41 25 41 14 0 -12 -60 -31 -70 -10 -5 -21 -21 -24 -35
-4 -14 -11 -25 -17 -25 -6 0 -7 -4 -4 -10 3 -5 -1 -10 -9 -10 -9 0 -16 -7 -16
-16 0 -13 -3 -14 -13 -5 -16 13 -27 5 -27 -21 0 -10 -4 -18 -9 -18 -5 0 -11
-10 -15 -22 -3 -13 -19 -37 -36 -55 -16 -18 -30 -37 -30 -43 0 -13 -71 -80
-85 -80 -5 0 -41 -23 -80 -51 -38 -27 -84 -59 -102 -70 -31 -20 -49 -47 -38
-57 8 -8 156 53 245 101 115 62 268 137 279 137 6 0 52 23 103 51 51 29 111
61 134 73 22 12 59 36 81 54 23 17 44 32 47 32 4 0 25 12 48 26 23 15 51 27
63 27 13 0 31 14 48 38 16 22 34 39 41 39 8 0 19 7 27 16 16 20 67 46 80 42
16 -5 -111 -128 -132 -128 -11 0 -38 -17 -62 -38 -23 -22 -73 -56 -112 -77
-38 -21 -97 -57 -130 -81 -61 -42 -174 -111 -255 -154 -25 -13 -63 -35 -85
-49 -55 -34 -26 -39 66 -11 39 12 73 19 76 16 8 -8 -21 -30 -67 -52 -195 -91
-374 -194 -338 -194 10 0 110 38 130 50 10 6 26 10 37 10 10 0 24 7 31 15 7 9
23 15 34 13 12 -2 29 4 39 14 11 9 31 19 45 23 15 3 50 17 79 31 57 26 63 28
63 16 0 -5 -22 -18 -49 -31 -27 -12 -57 -33 -66 -47 -13 -21 -21 -24 -46 -19
-17 4 -36 2 -43 -4 -8 -7 -24 -14 -37 -16 -13 -3 -27 -11 -31 -20 -5 -8 -18
-15 -28 -15 -11 0 -20 -5 -20 -11 0 -7 -20 -30 -45 -53 -47 -44 -56 -66 -29
-66 12 0 15 -6 10 -25 -6 -24 -5 -25 16 -13 12 7 28 19 36 26 16 14 52 16 52
3 0 -5 -4 -11 -9 -13 -4 -1 -11 -13 -15 -25 -6 -18 -4 -22 7 -17 9 3 17 -3 20
-18 5 -18 -3 -31 -34 -60 -22 -21 -47 -38 -56 -38 -8 0 -20 -6 -27 -12 -14
-15 -46 -108 -37 -108 3 0 32 18 63 40 32 22 82 52 111 68 29 16 74 43 100 60
25 18 50 32 55 32 5 0 30 12 56 26 25 14 50 23 56 19 9 -6 47 9 151 60 24 11
30 10 52 -11 16 -15 27 -19 29 -12 3 9 6 9 11 1 4 -7 -5 -17 -23 -25 -28 -12
-35 -21 -31 -41 1 -5 -8 -11 -19 -14 -11 -3 -20 -11 -20 -18 0 -7 -6 -16 -12
-19 -10 -3 -9 -8 3 -18 9 -7 14 -19 12 -25 -6 -18 5 -16 38 8 16 11 29 17 29
13 0 -3 6 -1 14 5 7 6 21 8 31 5 11 -5 22 -1 30 10 8 10 16 13 19 7 4 -5 -2
-16 -12 -23 -10 -7 -22 -25 -25 -39 -4 -15 -16 -29 -27 -32 -11 -3 -24 -6 -28
-7 -22 -6 -42 -22 -42 -35 0 -8 -6 -12 -14 -9 -8 3 -17 1 -21 -5 -3 -6 -1 -11
4 -11 6 0 -8 -17 -31 -37 -24 -21 -45 -40 -48 -43 -12 -13 -138 -110 -143
-110 -3 0 -20 -15 -39 -32 -19 -18 -59 -55 -89 -82 -60 -55 -95 -96 -82 -96
10 0 16 5 158 118 55 43 118 91 140 106 22 14 65 46 95 71 52 43 69 55 165
125 22 16 48 36 58 44 31 29 72 12 47 -19 -6 -8 -9 -19 -5 -25 3 -5 -4 -14
-17 -19 -13 -4 -21 -11 -18 -13 7 -7 -152 -129 -208 -158 -26 -14 -81 -48
-122 -76 -41 -28 -88 -58 -105 -67 -16 -8 -39 -24 -50 -34 -11 -10 -38 -27
-60 -38 -21 -11 -45 -26 -53 -34 -12 -12 -15 -12 -23 0 -7 11 -11 10 -23 -6
-14 -19 -13 -21 15 -33 l30 -12 -21 -22 c-11 -12 -20 -28 -20 -35 0 -15 -43
-55 -71 -65 -23 -9 -39 22 -39 75 0 18 -9 64 -20 102 -11 39 -20 81 -20 93 0
21 -14 69 -66 222 -8 25 -24 79 -34 120 -10 41 -28 102 -40 134 -18 54 -42
164 -44 208 0 9 -3 16 -6 16 -59 -5 -84 21 -86 90 0 31 -8 77 -17 102 -8 25
-32 99 -52 165 -20 66 -43 137 -51 158 -8 20 -14 51 -14 67 0 16 -4 31 -9 34
-4 3 -14 34 -21 68 -7 35 -18 66 -23 70 -15 10 -56 176 -58 236 -1 28 -8 57
-15 62 -6 6 -10 20 -7 30 4 14 0 20 -11 20 -9 0 -16 7 -16 15 0 18 12 19 28 3
9 -9 12 -7 12 10 0 24 -35 32 -43 10 -15 -41 -81 120 -70 173 3 19 12 29 23
29 21 0 43 24 32 35 -4 5 2 5 13 0 11 -4 27 -8 35 -9z m5110 -11 c0 -8 -2 -15
-4 -15 -2 0 -6 7 -10 15 -3 8 -1 15 4 15 6 0 10 -7 10 -15z m-5295 -254 c3 -5
1 -12 -5 -16 -5 -3 -10 1 -10 9 0 18 6 21 15 7z m10 -40 c3 -5 1 -12 -5 -16
-5 -3 -10 1 -10 9 0 18 6 21 15 7z m843 -205 c-7 -8 -15 -12 -17 -11 -5 6 10
25 20 25 5 0 4 -6 -3 -14z m34 -18 c-7 -7 -12 -8 -12 -2 0 14 12 26 19 19 2
-3 -1 -11 -7 -17z m2428 -7 c0 -5 -7 -11 -14 -14 -10 -4 -13 -1 -9 9 6 15 23
19 23 5z m105 -1 c3 -5 1 -10 -4 -10 -6 0 -11 5 -11 10 0 6 2 10 4 10 3 0 8
-4 11 -10z m-734 -53 c-1 -12 -15 -9 -19 4 -3 6 1 10 8 8 6 -3 11 -8 11 -12z
m-1951 -51 c0 -3 -4 -8 -10 -11 -5 -3 -10 -1 -10 4 0 6 5 11 10 11 6 0 10 -2
10 -4z m2724 -40 c-16 -19 -56 -49 -89 -67 -32 -18 -79 -50 -103 -73 -51 -47
-67 -43 -89 20 -14 39 -13 39 19 66 18 15 39 26 46 23 6 -2 12 1 12 8 0 7 7 4
15 -6 13 -18 14 -17 17 5 3 19 13 26 73 40 45 12 73 14 79 8 6 -6 15 -10 21
-10 5 0 3 5 -5 11 -13 9 -12 10 3 5 9 -3 17 0 17 6 0 6 3 8 6 5 4 -3 -6 -22
-22 -41z m-3302 -61 c2 -19 0 -35 -4 -35 -4 0 -8 10 -8 23 0 13 -5 28 -12 35
-9 9 -8 12 4 12 11 0 17 -11 20 -35z m18 -49 c0 -2 -7 -6 -15 -10 -8 -3 -15
-1 -15 4 0 6 7 10 15 10 8 0 15 -2 15 -4z m-10 -46 c12 -7 12 -12 2 -22 -10
-10 -15 -10 -22 2 -12 18 -13 30 -2 30 4 0 14 -5 22 -10z m29 -112 c1 -10 -3
-18 -9 -18 -5 0 -10 17 -9 38 0 30 2 33 9 17 5 -11 9 -28 9 -37z m1171 -8
c-20 -13 -33 -13 -25 0 3 6 14 10 23 10 15 0 15 -2 2 -10z m1807 -28 c-2 -38
-23 -56 -23 -20 0 10 4 18 9 18 4 0 5 5 2 10 -6 9 1 30 10 30 3 0 4 -17 2 -38z
m-1859 -8 c-9 -9 -21 -13 -28 -9 -9 6 -6 12 11 21 29 15 38 9 17 -12z m2066 0
c3 -9 12 -14 19 -11 18 7 41 -29 25 -39 -6 -4 -8 -3 -5 3 4 6 0 14 -9 17 -12
5 -15 2 -10 -10 4 -10 2 -14 -6 -11 -7 2 -12 11 -12 20 1 9 -2 14 -7 11 -5 -3
-9 -3 -9 0 0 2 -3 11 -6 20 -3 9 -2 16 4 16 5 0 13 -7 16 -16z m131 6 c-3 -5
2 -10 12 -10 15 0 16 -2 3 -10 -17 -11 -36 3 -26 19 4 6 9 11 12 11 3 0 2 -4
-1 -10z m-121 -72 c7 -5 7 -8 1 -8 -17 0 -64 59 -51 63 6 2 17 -8 25 -22 8
-14 19 -29 25 -33z m-80 15 c-10 29 2 19 31 -24 15 -23 21 -37 13 -33 -7 5
-15 9 -18 9 -15 0 -55 43 -58 60 -2 18 0 17 18 -5 12 -16 18 -18 14 -7z m1233
-5 c-3 -8 -6 -5 -6 6 -1 11 2 17 5 13 3 -3 4 -12 1 -19z m-3343 -13 c-7 -18
-36 -35 -59 -35 -24 0 -8 20 29 36 17 7 32 13 33 14 1 0 0 -7 -3 -15z m-64
-280 c-7 -9 -15 -13 -17 -11 -7 7 7 26 19 26 6 0 6 -6 -2 -15z m10 -29 c0 -3
-4 -8 -10 -11 -5 -3 -10 -1 -10 4 0 6 5 11 10 11 6 0 10 -2 10 -4z m-76 -20
l26 -13 -47 -31 c-26 -17 -49 -30 -51 -28 -3 4 38 86 43 86 1 0 15 -6 29 -14z
m-74 -15 c0 -10 -24 -21 -43 -21 -7 0 -3 7 7 15 22 17 36 19 36 6z m470 -2 c0
-4 -13 -9 -30 -12 -18 -4 -30 -13 -30 -23 0 -18 -22 -14 -28 6 -3 7 0 10 7 6
6 -4 11 -2 11 3 0 6 7 11 15 11 8 0 15 4 15 9 0 6 9 9 20 8 11 -1 20 -4 20 -8z
m2612 -57 c4 -12 -1 -18 -13 -18 -22 0 -24 7 -7 24 15 15 15 15 20 -6z m-3092
-1 c0 -12 -20 -25 -27 -18 -7 7 6 27 18 27 5 0 9 -4 9 -9z m2995 -31 c-3 -5
-14 -10 -23 -10 -15 0 -15 2 -2 10 20 13 33 13 25 0z m-1694 -64 c-6 -7 -24
-16 -40 -19 -20 -4 -28 -12 -27 -24 1 -13 -6 -18 -25 -18 -14 0 -32 -5 -40
-11 -29 -24 -141 -76 -147 -69 -4 4 -2 10 5 12 6 2 30 17 52 33 22 16 68 41
103 56 35 14 72 33 83 40 27 19 52 19 36 0z m-33 -95 c3 -9 -2 -11 -17 -6 -13
4 -21 2 -21 -5 0 -23 -53 -62 -74 -54 -13 5 -14 9 -5 20 6 8 17 14 24 14 7 0
16 7 19 16 3 8 10 13 15 10 5 -3 14 1 21 9 15 17 32 15 38 -4z m-113 -89 c-3
-3 -11 0 -18 7 -9 10 -8 11 6 5 10 -3 15 -9 12 -12z m-65 -37 c0 -9 -6 -12
-15 -9 -8 4 -15 10 -15 15 0 5 7 9 15 9 8 0 15 -7 15 -15z m258 -341 c-13 -13
-80 -53 -97 -59 -12 -3 -21 -11 -21 -16 0 -5 -5 -9 -10 -9 -9 0 -50 -32 -89
-71 -9 -8 -31 -21 -48 -28 -18 -8 -30 -17 -27 -22 3 -5 -4 -9 -15 -9 -12 0
-21 5 -21 10 0 6 -6 10 -14 10 -46 0 -8 53 46 65 15 4 32 13 39 21 9 12 15 12
27 2 13 -11 14 -10 10 2 -3 8 1 23 10 32 11 14 19 15 34 7 13 -7 18 -7 14 -1
-8 14 49 54 71 51 24 -4 63 10 63 21 0 5 7 7 15 3 9 -3 14 -7 13 -9z m-772
-153 c-8 -12 -76 -44 -82 -38 -6 6 57 45 74 46 7 1 11 -3 8 -8z m34 -95 c0 -8
-67 -46 -80 -46 -16 0 50 48 68 49 6 1 12 -1 12 -3z m-113 -70 c-15 -15 -101
-66 -111 -66 -18 0 -2 22 22 31 15 6 36 18 47 28 34 31 72 37 42 7z m845 -48
c-6 -6 -15 -8 -19 -4 -4 4 -1 11 7 16 19 12 27 3 12 -12z m1723 12 c3 -5 -1
-10 -10 -10 -9 0 -13 5 -10 10 3 6 8 10 10 10 2 0 7 -4 10 -10z m-151 -15 c-4
-8 -10 -15 -15 -15 -5 0 -9 7 -9 15 0 8 7 15 15 15 9 0 12 -6 9 -15z m-2578
-53 c-8 -10 -32 -26 -53 -37 -21 -11 -41 -24 -44 -28 -4 -5 -10 -4 -13 2 -4 6
-2 11 4 11 6 0 15 11 22 25 6 14 23 27 39 30 16 4 31 11 35 16 3 5 10 7 15 3
6 -4 5 -12 -5 -22z m614 -12 c0 -5 -5 -10 -11 -10 -5 0 -7 5 -4 10 3 6 8 10
11 10 2 0 4 -4 4 -10z m-160 -4 c0 -3 -4 -8 -10 -11 -5 -3 -10 -1 -10 4 0 6 5
11 10 11 6 0 10 -2 10 -4z m954 -37 c-6 -11 -44 -12 -44 -1 0 4 11 8 25 8 14
1 22 -2 19 -7z m-464 -29 c-34 -27 -63 -26 -31 0 13 11 31 20 40 20 12 0 10
-5 -9 -20z m-65 -39 c-3 -6 -16 -16 -28 -22 -21 -11 -21 -10 2 15 23 25 40 29
26 7z m-560 -60 c-3 -6 -11 -11 -17 -11 -6 0 -6 6 2 15 14 17 26 13 15 -4z
m501 4 c-8 -8 -21 -15 -30 -15 -8 0 -18 -4 -21 -10 -3 -5 -12 -10 -18 -10 -19
0 46 49 66 50 16 0 17 -2 3 -15z m204 -313 c0 -9 -51 -29 -124 -48 -74 -19
-40 3 45 30 41 13 75 24 77 25 1 1 2 -3 2 -7z m-430 -126 c0 -9 -30 -14 -35
-6 -4 6 3 10 14 10 12 0 21 -2 21 -4z m35 -46 c-3 -5 -11 -10 -16 -10 -6 0 -7
5 -4 10 3 6 11 10 16 10 6 0 7 -4 4 -10z m2145 1 c0 -15 -52 -52 -66 -47 -7 3
-15 -6 -18 -20 -4 -16 -18 -29 -36 -36 -17 -5 -30 -13 -30 -18 0 -4 -21 -21
-47 -38 -47 -31 -69 -33 -59 -6 3 8 0 14 -7 14 -10 0 58 69 107 108 20 16 67
34 74 28 2 -3 11 1 19 9 16 16 63 20 63 6z m-2209 -41 c-18 -21 -33 -29 -44
-24 -10 3 -17 1 -17 -5 0 -6 -7 -8 -15 -5 -8 4 -15 10 -15 16 0 5 4 7 9 4 5
-4 7 3 4 15 -5 17 -2 19 20 14 14 -4 34 -2 44 4 35 20 42 11 14 -19z m399 -15
c0 -5 -9 -10 -151 -83 -46 -23 -88 -48 -94 -55 -5 -6 -17 -13 -25 -14 -8 -1
-25 -5 -37 -9 -13 -3 -23 -2 -23 3 0 6 48 34 108 64 59 30 109 56 112 59 5 5
88 37 103 39 4 0 7 -1 7 -4z m1518 -36 c2 -9 -28 -43 -71 -82 -62 -56 -73 -62
-69 -42 2 15 0 25 -7 25 -6 0 3 16 20 35 24 26 35 32 45 24 10 -8 17 -2 28 26
16 38 48 46 54 14z m-1712 -4 c-11 -8 -27 -15 -35 -15 -10 1 -7 6 9 15 33 19
50 18 26 0z m-161 -15 c-3 -5 -11 -10 -16 -10 -6 0 -7 5 -4 10 3 6 11 10 16
10 6 0 7 -4 4 -10z m-52 -10 c16 0 -14 -20 -30 -20 -7 0 -13 7 -13 16 0 11 5
14 16 10 9 -3 21 -6 27 -6z m124 -16 c-3 -3 -12 -4 -19 -1 -8 3 -5 6 6 6 11 1
17 -2 13 -5z m-119 -63 c-7 -11 -23 -24 -36 -30 -14 -7 -21 -7 -17 -1 3 5 -1
10 -9 10 -30 0 -16 18 22 28 53 14 53 14 40 -7z m1936 5 c-4 -11 -44 -36 -64
-41 -3 0 -15 -6 -27 -13 -35 -19 -28 4 7 25 17 9 30 21 30 24 0 7 22 15 47 18
7 0 10 -5 7 -13z m-1657 -12 c-3 -3 -12 -4 -19 -1 -8 3 -5 6 6 6 11 1 17 -2
13 -5z m1103 -123 c0 -8 -63 -51 -75 -51 -5 0 2 11 15 25 24 25 22 35 -2 12
-38 -36 -97 -77 -92 -63 3 9 33 36 66 61 48 36 63 43 74 34 8 -6 14 -14 14
-18z m31 -12 c-24 -21 -46 -37 -49 -34 -3 3 3 12 14 19 10 8 30 23 44 35 43
36 37 22 -9 -20z m-1941 21 c0 -5 -4 -10 -10 -10 -5 0 -10 5 -10 10 0 6 5 10
10 10 6 0 10 -4 10 -10z m220 -55 c-14 -17 -45 -21 -35 -5 4 6 11 8 16 5 5 -4
9 -1 9 4 0 6 5 11 11 11 8 0 8 -5 -1 -15z m-240 -10 c-7 -9 -15 -13 -17 -11
-7 7 7 26 19 26 6 0 6 -6 -2 -15z m328 -142 c2 -8 -6 -13 -22 -13 -25 0 -33
10 -19 24 10 10 36 3 41 -11z m1192 -7 c0 -2 -8 -10 -17 -17 -16 -13 -17 -12
-4 4 13 16 21 21 21 13z m4486 -397 c3 -6 0 -15 -7 -20 -22 -14 -28 -11 -22
11 6 22 18 26 29 9z m28 -61 c13 -37 -1 -99 -25 -105 -12 -4 -19 -14 -19 -32
-1 -35 -25 -78 -35 -62 -4 7 -4 15 -1 18 3 3 1 12 -5 20 -14 16 2 18 18 2 8
-8 11 -5 11 12 0 53 14 144 22 147 5 2 6 10 3 19 -4 11 -2 14 8 11 8 -3 18
-16 23 -30z m-3334 3 c-8 -5 -26 -11 -40 -15 -21 -5 -20 -3 5 9 32 15 60 20
35 6z m-130 -46 c0 -7 -84 -44 -89 -39 -7 7 6 15 46 29 45 17 43 16 43 10z
m-90 -75 c-8 -5 -22 -10 -30 -10 -13 0 -13 1 0 10 8 5 22 10 30 10 13 0 13 -1
0 -10z m305 -28 c-12 -11 -95 -43 -95 -37 0 6 78 40 100 44 2 1 0 -3 -5 -7z
m125 -25 c-96 -46 -172 -78 -176 -74 -3 2 22 16 53 30 32 14 78 34 103 45 61
27 77 26 20 -1z m-645 -17 c-3 -5 -12 -10 -18 -10 -7 0 -6 4 3 10 19 12 23 12
15 0z m700 0 c-3 -5 -12 -10 -18 -10 -7 0 -6 4 3 10 19 12 23 12 15 0z m-59
-29 c-6 -9 -66 -33 -66 -26 0 6 52 34 63 35 5 0 6 -4 3 -9z m84 -6 c0 -8 -82
-47 -87 -41 -3 3 14 15 38 26 49 22 49 22 49 15z m-345 -35 c-3 -5 -14 -10
-23 -10 -15 0 -15 2 -2 10 20 13 33 13 25 0z m345 -35 c-14 -8 -29 -14 -35
-14 -5 0 1 6 15 14 14 8 30 14 35 14 6 0 -1 -6 -15 -14z m-370 -5 c0 -5 -4
-10 -10 -10 -5 0 -10 5 -10 10 0 6 5 10 10 10 6 0 10 -4 10 -10z"/>
<path d="M3717 7290 c3 -11 7 -20 9 -20 2 0 4 9 4 20 0 11 -4 20 -9 20 -5 0
-7 -9 -4 -20z"/>
<path d="M3240 7283 c12 -26 4 -67 -16 -84 -8 -6 -14 -16 -14 -22 0 -5 9 2 20
16 11 14 20 30 20 37 0 6 4 9 9 6 5 -3 14 1 21 9 8 9 8 15 2 15 -6 0 -13 -6
-15 -12 -4 -9 -6 -8 -6 3 -1 8 4 20 11 27 9 9 9 12 0 12 -7 0 -12 -5 -12 -12
0 -6 -7 -3 -16 8 -15 18 -15 18 -4 -3z"/>
<path d="M3320 7270 c0 -6 4 -10 9 -10 5 0 12 -8 14 -17 4 -14 5 -13 6 3 0 12
-6 24 -14 28 -8 3 -15 1 -15 -4z"/>
<path d="M3433 7232 c-1 -9 12 -33 29 -52 l30 -35 -27 38 c-29 40 -28 59 2 36
15 -11 15 -10 -1 9 -23 27 -31 28 -33 4z"/>
<path d="M3291 7203 c7 -12 15 -20 18 -17 3 2 -3 12 -13 22 -17 16 -18 16 -5
-5z"/>
<path d="M3140 7199 c0 -5 5 -7 10 -4 6 3 10 8 10 11 0 2 -4 4 -10 4 -5 0 -10
-5 -10 -11z"/>
<path d="M3980 7196 c0 -2 8 -10 18 -17 15 -13 16 -12 3 4 -13 16 -21 21 -21
13z"/>
<path d="M3540 7180 c0 -5 5 -10 11 -10 5 0 7 5 4 10 -3 6 -8 10 -11 10 -2 0
-4 -4 -4 -10z"/>
<path d="M3590 7186 c0 -2 7 -7 16 -10 8 -3 12 -2 9 4 -6 10 -25 14 -25 6z"/>
<path d="M3905 7180 c3 -5 8 -10 11 -10 2 0 4 5 4 10 0 6 -5 10 -11 10 -5 0
-7 -4 -4 -10z"/>
<path d="M3390 7171 c0 -5 9 -11 20 -14 12 -3 20 0 20 7 0 6 -9 12 -20 13 -11
1 -20 -2 -20 -6z"/>
<path d="M3604 7151 c20 -22 26 -25 26 -13 0 4 -10 13 -22 21 -23 14 -23 14
-4 -8z"/>
<path d="M4040 7164 c0 -2 9 -8 20 -14 11 -6 20 -7 20 -2 0 6 -9 12 -20 15
-11 3 -20 3 -20 1z"/>
<path d="M3659 7130 c25 -21 46 -27 36 -10 -3 6 -13 10 -21 10 -8 0 -14 5 -14
10 0 6 -6 10 -12 10 -7 -1 -2 -10 11 -20z"/>
<path d="M3430 7119 c0 -9 9 -27 21 -40 11 -13 18 -18 14 -11 -29 57 -35 65
-35 51z"/>
<path d="M3399 7102 c6 -12 16 -24 22 -28 8 -4 8 -1 0 14 -6 12 -16 24 -22 28
-8 4 -8 1 0 -14z"/>
<path d="M3726 7095 c10 -8 24 -14 29 -14 6 0 1 6 -9 14 -11 8 -24 15 -30 15
-5 0 -1 -7 10 -15z"/>
<path d="M3770 7101 c0 -9 30 -24 36 -18 2 1 -6 8 -16 15 -11 7 -20 8 -20 3z"/>
<path d="M3029 7083 c-13 -16 -12 -17 4 -4 9 7 17 15 17 17 0 8 -8 3 -21 -13z"/>
<path d="M3380 7046 c0 -11 40 -86 45 -86 3 0 -4 19 -16 43 -23 45 -29 54 -29
43z"/>
<path d="M2919 6903 l-24 -28 28 24 c25 23 32 31 24 31 -2 0 -14 -12 -28 -27z"/>
<path d="M2821 6733 c0 -31 2 -34 9 -18 12 28 12 55 0 55 -5 0 -10 -17 -9 -37z"/>
<path d="M4930 6646 c0 -2 8 -10 18 -17 15 -13 16 -12 3 4 -13 16 -21 21 -21
13z"/>
<path d="M5185 6370 c10 -11 20 -20 23 -20 3 0 -3 9 -13 20 -10 11 -20 20 -23
20 -3 0 3 -9 13 -20z"/>
<path d="M5041 6064 c-18 -8 -40 -22 -48 -30 -40 -40 -117 -54 -145 -26 -11
11 -10 12 4 7 9 -4 29 0 45 8 21 11 34 12 47 5 14 -8 17 -7 12 1 -4 6 2 15 16
20 13 6 19 10 13 11 -5 1 -17 3 -25 4 -26 5 -161 -13 -173 -23 -7 -5 -59 -21
-117 -35 -148 -37 -273 -102 -356 -184 -36 -35 -63 -66 -61 -69 3 -2 -8 -18
-23 -35 -40 -43 -44 -66 -12 -60 17 3 23 1 18 -7 -4 -6 -12 -9 -17 -6 -5 3 -6
-1 -3 -9 3 -9 10 -13 15 -10 5 3 9 0 9 -6 0 -6 -10 -15 -22 -20 -22 -8 -21 -9
7 -10 29 -1 29 -1 11 -15 -13 -10 -15 -15 -6 -15 9 0 8 -6 -5 -20 -15 -16 -15
-20 -3 -15 8 3 23 -1 32 -10 10 -10 24 -14 34 -10 14 5 15 4 5 -6 -7 -7 -13
-24 -13 -38 0 -23 1 -23 13 -7 11 15 13 14 15 -15 1 -18 7 -38 12 -44 5 -7 6
-15 2 -19 -4 -4 0 -6 8 -4 8 2 20 11 26 21 10 17 12 17 26 4 12 -12 18 -13 28
-4 10 10 12 8 6 -7 -7 -19 -6 -19 13 -2 18 17 19 17 24 -1 4 -15 6 -14 13 6
l7 25 10 -25 c8 -19 11 -20 14 -7 2 9 11 19 19 22 12 4 14 1 9 -14 -8 -24 13
-28 22 -4 5 13 8 13 15 2 7 -9 8 -3 4 17 l-5 30 12 -27 c11 -29 22 -35 32 -18
3 5 12 7 20 4 11 -5 12 0 5 26 -7 23 -6 30 3 27 7 -2 11 -11 11 -20 -2 -19 34
-9 96 28 25 14 34 23 21 20 -16 -5 -21 -4 -16 4 4 7 1 19 -7 28 -7 9 -8 14 -2
10 7 -4 17 0 24 8 10 12 7 19 -17 39 -15 14 -23 26 -18 26 6 0 19 -9 28 -21
16 -18 20 -19 30 -6 7 7 27 20 45 27 17 7 32 17 32 22 0 7 -4 7 -12 1 -7 -6
-22 -13 -33 -16 -19 -7 -19 -6 -2 7 15 11 16 18 8 34 -11 21 -5 52 10 52 13 0
11 -18 -2 -22 -5 -2 -7 -11 -3 -21 6 -16 9 -15 32 8 26 27 53 35 32 10 -8 -9
-8 -15 -2 -15 14 0 24 33 17 52 -3 8 1 21 10 28 10 8 15 9 15 1 0 -6 -4 -11
-10 -11 -5 0 -10 -4 -10 -10 0 -5 4 -10 9 -10 10 0 53 101 46 108 -2 3 3 11
13 19 16 12 16 13 0 7 -10 -3 -18 -1 -18 5 0 6 5 11 10 11 6 0 10 5 10 11 0 6
-7 9 -15 5 -21 -8 0 27 49 81 46 50 80 103 66 103 -5 0 -7 7 -4 15 7 18 9 18
-35 -1z m-225 -62 c-3 -5 -28 -10 -57 -11 -28 -1 -57 -4 -63 -8 -7 -4 -8 -2
-1 5 9 9 27 13 108 20 10 1 16 -2 13 -6z m17 -39 c-7 -2 -19 -2 -25 0 -7 3 -2
5 12 5 14 0 19 -2 13 -5z m-172 -30 c-14 -11 -14 -12 4 -14 14 0 11 -3 -10
-10 -43 -13 -105 -19 -105 -9 0 4 -10 6 -22 4 -21 -4 -22 -4 -3 5 11 5 41 10
68 10 26 1 47 5 47 9 0 5 -24 8 -52 6 -38 -1 -46 0 -28 6 14 4 46 7 71 7 40
-1 45 -3 30 -14z m-175 -23 c-22 -11 -41 -18 -43 -16 -5 4 59 36 72 35 6 0 -8
-9 -29 -19z m-3 -25 c-3 -9 -8 -14 -10 -11 -3 3 -2 9 2 15 9 16 15 13 8 -4z
m61 -10 c-4 -8 -10 -15 -16 -15 -5 0 -6 6 -2 13 4 6 -1 4 -12 -6 -40 -38 -79
-67 -89 -67 -5 1 1 10 15 21 14 12 38 32 54 45 34 27 58 32 50 9z m386 -10
c-7 -8 -18 -15 -24 -15 -6 0 -2 7 8 15 25 19 32 19 16 0z m-116 -89 c-10 -34
-50 -99 -74 -121 l-23 -20 12 23 c7 13 12 44 10 70 -2 67 5 79 47 74 30 -4 34
-7 28 -26z m-207 -13 c-17 -17 -47 -11 -46 9 0 9 2 9 5 2 7 -17 44 -5 45 15 0
11 2 12 6 3 3 -8 -2 -21 -10 -29z m-212 7 c-3 -5 -12 -10 -18 -10 -7 0 -6 4 3
10 19 12 23 12 15 0z m458 -41 c-4 -15 -9 -17 -17 -9 -8 8 -7 13 4 20 8 5 16
10 17 10 0 0 -1 -9 -4 -21z m-221 -31 c-9 -9 -15 -9 -24 0 -10 10 -10 15 2 22
20 12 38 -6 22 -22z m-395 -14 c-3 -3 -12 -4 -19 -1 -8 3 -5 6 6 6 11 1 17 -2
13 -5z m569 -24 c1 -23 -2 -28 -11 -20 -7 6 -11 20 -8 30 8 30 18 24 19 -10z
m-20 -40 c9 0 12 -5 9 -10 -4 -7 -13 -7 -26 0 -11 6 -16 16 -12 23 5 8 8 8 11
-1 2 -7 10 -12 18 -12z m-286 -71 c14 -7 28 -12 33 -11 14 4 7 -16 -9 -22 -25
-9 -41 -7 -24 4 11 7 8 10 -16 10 -24 0 -37 8 -57 37 -34 47 -24 63 17 25 17
-16 42 -36 56 -43z m261 44 c13 -16 12 -17 -3 -4 -10 7 -18 15 -18 17 0 8 8 3
21 -13z m-68 -62 c3 -11 0 -22 -7 -24 -6 -3 -12 6 -12 19 -2 29 12 32 19 5z
m42 -52 c1 -8 -13 -22 -30 -31 -38 -22 -45 -22 -45 0 0 14 2 15 10 2 8 -12 10
-10 10 9 0 16 4 21 14 18 10 -4 13 -1 10 8 -4 9 1 13 13 11 10 -2 18 -9 18
-17z m-125 -51 c0 -10 -5 -16 -10 -13 -6 4 -8 11 -4 16 3 5 0 18 -8 27 -12 15
-11 16 5 3 9 -7 17 -22 17 -33z"/>
<path d="M5700 5988 c24 -27 45 -48 47 -48 8 0 0 9 -44 50 l-48 45 45 -47z"/>
<path d="M5650 6006 c0 -2 8 -10 18 -17 15 -13 16 -12 3 4 -13 16 -21 21 -21
13z"/>
<path d="M5690 5956 c0 -2 12 -12 28 -21 l27 -18 -19 21 c-17 20 -36 29 -36
18z"/>
<path d="M3727 5669 c7 -7 15 -10 18 -7 3 3 -2 9 -12 12 -14 6 -15 5 -6 -5z"/>
<path d="M4866 5637 c3 -10 9 -15 12 -12 3 3 0 11 -7 18 -10 9 -11 8 -5 -6z"/>
<path d="M3840 5626 c0 -2 7 -7 16 -10 8 -3 12 -2 9 4 -6 10 -25 14 -25 6z"/>
<path d="M4780 5540 c0 -5 7 -7 15 -4 8 4 15 8 15 10 0 2 -7 4 -15 4 -8 0 -15
-4 -15 -10z"/>
<path d="M6126 5503 c-4 -9 -3 -20 2 -25 6 -6 11 1 14 16 6 29 -6 35 -16 9z"/>
<path d="M6055 5489 c-4 -6 -5 -12 -2 -15 2 -3 7 2 10 11 7 17 1 20 -8 4z"/>
<path d="M6206 5407 c3 -10 9 -15 12 -12 3 3 0 11 -7 18 -10 9 -11 8 -5 -6z"/>
<path d="M6000 5326 c0 -2 7 -9 15 -16 9 -7 15 -8 15 -2 0 5 -7 12 -15 16 -8
3 -15 4 -15 2z"/>
<path d="M6225 5300 c21 -24 26 -25 19 -6 -3 8 -13 17 -22 21 -13 5 -13 2 3
-15z"/>
<path d="M5960 5240 c0 -5 5 -10 11 -10 5 0 7 5 4 10 -3 6 -8 10 -11 10 -2 0
-4 -4 -4 -10z"/>
<path d="M6010 5186 c0 -2 8 -10 18 -17 15 -13 16 -12 3 4 -13 16 -21 21 -21
13z"/>
<path d="M6709 4957 c6 -8 7 -18 3 -22 -4 -5 -1 -5 6 -1 10 6 10 11 1 22 -6 8
-14 14 -16 14 -3 0 0 -6 6 -13z"/>
<path d="M6716 4735 c9 -14 20 -25 25 -25 5 0 -1 11 -13 25 -12 14 -23 25 -25
25 -2 0 4 -11 13 -25z"/>
<path d="M3752 4475 c0 -16 2 -22 5 -12 2 9 2 23 0 30 -3 6 -5 -1 -5 -18z"/>
<path d="M3761 4344 c0 -11 3 -14 6 -6 3 7 2 16 -1 19 -3 4 -6 -2 -5 -13z"/>
<path d="M6487 4243 c-4 -3 -7 -11 -7 -17 0 -6 5 -5 12 2 6 6 9 14 7 17 -3 3
-9 2 -12 -2z"/>
<path d="M4063 4123 c-7 -3 -13 -12 -13 -21 0 -15 2 -15 17 1 18 18 16 27 -4
20z"/>
<path d="M4650 3985 c7 -9 15 -13 17 -11 7 7 -7 26 -19 26 -6 0 -6 -6 2 -15z"/>
<path d="M4580 3970 c0 -5 5 -10 10 -10 6 0 10 5 10 10 0 6 -4 10 -10 10 -5 0
-10 -4 -10 -10z"/>
<path d="M5216 3923 c-6 -14 -5 -15 5 -6 7 7 10 15 7 18 -3 3 -9 -2 -12 -12z"/>
<path d="M5155 3890 c-3 -5 -1 -10 4 -10 6 0 11 5 11 10 0 6 -2 10 -4 10 -3 0
-8 -4 -11 -10z"/>
<path d="M5087 3863 c-4 -3 -7 -11 -7 -17 0 -6 5 -5 12 2 6 6 9 14 7 17 -3 3
-9 2 -12 -2z"/>
<path d="M5101 3836 c-9 -11 -8 -15 5 -20 9 -4 19 -4 22 -1 3 3 0 5 -7 5 -8 0
-11 7 -7 15 7 19 2 19 -13 1z"/>
<path d="M5000 3800 c0 -5 5 -10 11 -10 5 0 7 5 4 10 -3 6 -8 10 -11 10 -2 0
-4 -4 -4 -10z"/>
<path d="M6180 3790 c0 -5 5 -10 10 -10 6 0 10 5 10 10 0 6 -4 10 -10 10 -5 0
-10 -4 -10 -10z"/>
<path d="M4980 3781 c0 -5 5 -13 10 -16 6 -3 10 -2 10 4 0 5 -4 13 -10 16 -5
3 -10 2 -10 -4z"/>
<path d="M4887 3763 c-4 -3 -7 -11 -7 -17 0 -6 5 -5 12 2 6 6 9 14 7 17 -3 3
-9 2 -12 -2z"/>
<path d="M5000 3750 c-9 -6 -10 -10 -3 -10 6 0 15 5 18 10 8 12 4 12 -15 0z"/>
<path d="M4850 3729 c0 -5 5 -7 10 -4 6 3 10 8 10 11 0 2 -4 4 -10 4 -5 0 -10
-5 -10 -11z"/>
<path d="M4976 3727 c3 -10 9 -15 12 -12 3 3 0 11 -7 18 -10 9 -11 8 -5 -6z"/>
<path d="M4930 3721 c0 -5 7 -12 16 -15 14 -5 15 -4 4 9 -14 17 -20 19 -20 6z"/>
<path d="M4768 3691 c-24 -22 -30 -33 -22 -41 8 -8 18 0 38 30 31 48 28 50
-16 11z"/>
<path d="M4812 3698 c-11 -14 0 -52 17 -63 8 -4 8 2 1 21 -6 15 -9 33 -6 41 7
16 1 17 -12 1z"/>
<path d="M4880 3640 c8 -6 24 -16 35 -22 18 -9 17 -8 -2 11 -12 11 -28 21 -35
21 -9 0 -9 -3 2 -10z"/>
<path d="M4751 3604 c0 -11 3 -14 6 -6 3 7 2 16 -1 19 -3 4 -6 -2 -5 -13z"/>
<path d="M4801 3604 c0 -11 3 -14 6 -6 3 7 2 16 -1 19 -3 4 -6 -2 -5 -13z"/>
<path d="M5015 3590 c3 -5 8 -10 11 -10 2 0 4 5 4 10 0 6 -5 10 -11 10 -5 0
-7 -4 -4 -10z"/>
<path d="M4853 3528 c-2 -18 0 -20 7 -8 12 18 13 30 2 30 -4 0 -9 -10 -9 -22z"/>
<path d="M5650 3199 c0 -5 5 -7 10 -4 6 3 10 8 10 11 0 2 -4 4 -10 4 -5 0 -10
-5 -10 -11z"/>
<path d="M5570 3133 c0 -6 9 -9 20 -6 30 8 32 18 4 18 -13 0 -24 -5 -24 -12z"/>
<path d="M6410 5365 c13 -14 26 -25 28 -25 3 0 -5 11 -18 25 -13 14 -26 25
-28 25 -3 0 5 -11 18 -25z"/>
<path d="M6460 5345 c13 -14 26 -25 28 -25 3 0 -5 11 -18 25 -13 14 -26 25
-28 25 -3 0 5 -11 18 -25z"/>
<path d="M6137 5582 c-3 -4 9 -17 24 -30 16 -13 29 -19 29 -15 0 13 -48 54
-53 45z"/>
<path d="M2216 3823 c-6 -14 -5 -15 5 -6 7 7 10 15 7 18 -3 3 -9 -2 -12 -12z"/>
<path d="M2140 3024 c0 -8 5 -12 10 -9 6 4 8 11 5 16 -9 14 -15 11 -15 -7z"/>
<path d="M2235 2990 c3 -5 8 -10 11 -10 2 0 4 5 4 10 0 6 -5 10 -11 10 -5 0
-7 -4 -4 -10z"/>
<path d="M2162 2928 c3 -7 13 -15 22 -16 12 -3 17 1 14 10 -3 7 -13 15 -22 16
-12 3 -17 -1 -14 -10z"/>
<path d="M5330 1239 c0 -5 5 -7 10 -4 6 3 10 8 10 11 0 2 -4 4 -10 4 -5 0 -10
-5 -10 -11z"/>
<path d="M2800 2359 c-25 -12 -40 -23 -33 -26 13 -5 68 21 78 37 8 13 7 13
-45 -11z"/>
<path d="M2660 2303 c0 -11 5 -11 20 -3 11 6 20 13 20 15 0 2 -9 3 -20 2 -11
-1 -20 -7 -20 -14z"/>
<path d="M2546 2255 c-11 -8 -15 -15 -9 -15 7 0 15 5 18 11 4 6 13 8 21 5 8
-3 14 -1 14 4 0 14 -22 12 -44 -5z"/>
<path d="M2693 2199 c-18 -5 -35 -14 -38 -19 -3 -5 -12 -7 -19 -4 -8 3 -17 1
-21 -5 -3 -6 -13 -11 -21 -11 -8 0 -31 -11 -52 -24 -21 -13 -47 -25 -58 -28
-10 -2 -19 -10 -19 -18 0 -8 -4 -18 -8 -21 -9 -7 2 -39 14 -39 4 0 6 6 3 14
-6 16 22 30 31 16 4 -6 1 -10 -5 -10 -6 0 -9 -4 -6 -9 3 -5 -10 -16 -29 -25
-33 -16 -51 -33 -43 -41 2 -2 28 8 58 22 29 14 65 25 79 25 31 0 52 15 45 32
-3 7 6 18 18 24 13 7 48 25 78 42 30 16 61 30 68 30 24 0 12 -28 -25 -60 -21
-17 -29 -27 -18 -22 99 47 109 55 80 65 -8 4 -12 15 -10 27 5 28 -33 27 -71
-2 -15 -13 -25 -17 -20 -10 11 18 -1 15 -42 -13 -20 -14 -44 -25 -53 -25 -10
0 -20 -6 -22 -12 -4 -9 -6 -8 -6 2 -1 9 24 29 57 47 53 30 103 63 92 62 -3 -1
-19 -5 -37 -10z m-126 -125 c-9 -9 -28 6 -21 18 4 6 10 6 17 -1 6 -6 8 -13 4
-17z"/>
<path d="M2653 2074 c-7 -3 -9 -12 -6 -20 3 -9 0 -14 -8 -12 -8 2 -14 -3 -14
-9 0 -21 19 -17 30 6 5 11 13 21 17 21 5 0 8 5 8 10 0 11 -7 12 -27 4z"/>
<path d="M2050 2061 c0 -6 5 -13 10 -16 6 -3 10 1 10 9 0 9 -4 16 -10 16 -5 0
-10 -4 -10 -9z"/>
<path d="M2525 2000 c-3 -5 -2 -10 4 -10 5 0 13 5 16 10 3 6 2 10 -4 10 -5 0
-13 -4 -16 -10z"/>
<path d="M2480 1971 c-5 -11 -10 -22 -10 -25 0 -12 35 -5 55 10 17 13 18 16 5
24 -23 15 -38 12 -50 -9z"/>
<path d="M2550 1951 c0 -6 4 -13 10 -16 6 -3 7 1 4 9 -7 18 -14 21 -14 7z"/>
<path d="M2792 1769 c4 -10 -4 -19 -26 -27 -17 -7 -60 -27 -96 -45 -36 -18
-71 -32 -78 -32 -8 0 -19 -8 -26 -18 -7 -9 -20 -17 -28 -17 -8 0 -30 -16 -49
-37 -18 -20 -27 -33 -19 -29 9 5 8 2 -2 -7 -24 -19 -23 -30 3 -22 18 6 20 4
15 -13 -6 -17 -3 -19 12 -15 24 6 40 -16 21 -29 -10 -7 -9 -8 6 -3 11 4 34 11
52 16 17 5 34 16 37 24 3 9 18 21 33 27 27 11 27 12 5 16 -13 2 -29 -2 -37 -8
-15 -12 -35 -6 -35 11 0 6 4 7 10 4 5 -3 7 0 4 8 -6 16 34 50 48 41 4 -3 5 2
2 10 -3 8 2 17 14 20 10 4 27 14 38 24 29 26 72 52 86 52 7 0 18 8 24 18 9 13
8 21 -4 32 -14 13 -15 12 -10 -1z"/>
<path d="M2902 1745 c-22 -25 -22 -25 -1 -25 25 0 47 20 41 38 -6 18 -16 15
-40 -13z"/>
<path d="M2691 1614 c0 -11 3 -14 6 -6 3 7 2 16 -1 19 -3 4 -6 -2 -5 -13z"/>
<path d="M2716 1615 c-3 -8 -1 -15 4 -15 13 0 22 18 11 24 -5 3 -11 -1 -15 -9z"/>
<path d="M2673 1583 c9 -2 23 -2 30 0 6 3 -1 5 -18 5 -16 0 -22 -2 -12 -5z"/>
<path d="M9946 1440 c-26 -27 -51 -50 -55 -50 -4 0 -37 -34 -72 -76 -35 -42
-87 -104 -116 -137 -28 -33 -66 -87 -85 -119 -18 -33 -43 -72 -54 -86 -39 -50
-61 -107 -97 -252 -39 -159 -57 -292 -58 -445 -1 -96 -3 -104 -43 -187 l-42
-88 338 0 338 0 0 745 c0 410 -1 745 -3 745 -2 0 -25 -22 -51 -50z m-53 -85
c-3 -9 -8 -14 -10 -11 -3 3 -2 9 2 15 9 16 15 13 8 -4z"/>
<path d="M2447 1454 c-4 -4 -7 -14 -7 -23 0 -11 3 -12 11 -4 6 6 10 16 7 23
-2 6 -7 8 -11 4z"/>
<path d="M3073 1284 c3 -4 -6 -17 -21 -30 l-26 -25 -13 23 -12 23 -1 -25 c0
-18 -3 -21 -9 -11 -7 10 -13 11 -27 2 -11 -6 -15 -11 -9 -11 17 0 -69 -40 -87
-40 -10 0 -18 -5 -18 -10 0 -6 -12 -16 -27 -23 -16 -7 -44 -21 -63 -32 -19
-10 -51 -20 -70 -22 -19 -1 -36 -7 -38 -13 -2 -5 -10 -10 -19 -10 -13 0 -13
-2 1 -15 8 -8 18 -15 23 -15 4 0 77 29 161 65 85 36 158 65 163 65 17 0 109
65 109 78 0 6 7 12 16 12 8 0 13 -4 10 -9 -7 -10 19 -23 28 -14 3 4 6 15 6 27
0 14 -3 17 -11 9 -7 -7 -21 -8 -41 -2 -17 4 -28 6 -25 3z"/>
<path d="M3145 1200 c3 -5 -1 -10 -9 -10 -9 0 -16 -5 -16 -11 0 -6 8 -9 17 -7
20 4 31 38 13 38 -6 0 -8 -4 -5 -10z"/>
<path d="M3046 1145 c-7 -19 -5 -19 30 0 l29 15 -26 0 c-15 0 -29 -7 -33 -15z"/>
<path d="M4838 1119 c-10 -10 -15 -19 -10 -19 10 1 42 26 42 34 0 11 -15 5
-32 -15z"/>
<path d="M4905 1131 c-6 -11 33 -26 43 -16 4 3 0 10 -8 15 -19 12 -27 12 -35
1z"/>
<path d="M4295 1100 c3 -5 8 -10 11 -10 2 0 4 5 4 10 0 6 -5 10 -11 10 -5 0
-7 -4 -4 -10z"/>
<path d="M2572 1077 c-7 -8 -9 -17 -5 -20 3 -4 2 -7 -4 -7 -12 0 -36 -50 -28
-58 3 -3 5 0 5 6 0 7 7 12 15 12 8 0 15 5 15 12 0 6 8 20 17 30 11 13 13 22 6
29 -7 7 -14 5 -21 -4z"/>
<path d="M3030 1060 c-9 -6 -10 -10 -3 -10 6 0 15 5 18 10 8 12 4 12 -15 0z"/>
<path d="M3378 1023 c7 -3 16 -2 19 1 4 3 -2 6 -13 5 -11 0 -14 -3 -6 -6z"/>
<path d="M3285 1010 c3 -5 8 -10 11 -10 2 0 4 5 4 10 0 6 -5 10 -11 10 -5 0
-7 -4 -4 -10z"/>
<path d="M3277 932 c5 -11 2 -14 -10 -9 -9 3 -17 2 -17 -3 0 -5 -9 -12 -20
-15 -11 -3 -20 -11 -20 -17 0 -13 52 -1 65 16 6 7 18 15 28 19 25 9 21 22 -7
23 -18 1 -23 -2 -19 -14z"/>
<path d="M3542 788 c-7 -7 -12 -18 -12 -25 0 -7 -8 -13 -19 -13 -16 0 -81 -52
-81 -65 0 -11 18 -4 40 15 12 11 27 17 32 14 5 -3 16 2 24 12 9 11 12 12 8 5
-5 -9 5 -6 23 7 22 16 30 28 26 42 -6 23 -23 26 -41 8z"/>
<path d="M4860 724 l-25 -15 25 7 c14 3 29 10 35 15 15 14 -7 10 -35 -7z"/>
<path d="M4749 694 c-11 -14 -10 -15 11 -12 13 1 25 9 28 16 5 17 -23 15 -39
-4z"/>
<path d="M4690 649 c0 -5 5 -7 10 -4 6 3 10 8 10 11 0 2 -4 4 -10 4 -5 0 -10
-5 -10 -11z"/>
<path d="M3270 609 c0 -11 29 -19 45 -13 26 10 16 24 -15 22 -16 -1 -30 -5
-30 -9z"/>
<path d="M3200 578 c0 -3 -7 -8 -16 -10 -13 -2 -13 -6 -2 -21 13 -17 14 -17
33 1 11 10 24 19 30 19 25 3 12 20 -15 19 -16 -1 -30 -4 -30 -8z"/>
<path d="M4345 549 c-39 -14 -43 -18 -17 -14 67 10 92 17 97 26 9 14 -25 9
-80 -12z"/>
<path d="M3114 517 c-50 -29 -124 -67 -130 -66 -3 0 -21 -13 -41 -30 -20 -17
-41 -31 -47 -31 -6 0 -28 -16 -50 -35 -21 -19 -42 -35 -47 -35 -5 0 -9 -7 -9
-16 0 -8 -4 -13 -8 -10 -26 16 -43 -117 -18 -135 5 -4 10 -24 10 -45 1 -22 3
-56 4 -76 l2 -38 94 0 c78 0 97 3 119 20 14 11 28 20 32 20 4 0 23 13 42 30
18 16 39 30 46 30 7 0 20 8 29 18 36 38 75 71 118 98 25 15 53 35 62 44 9 8
35 29 57 45 40 30 54 65 26 65 -8 0 -15 5 -15 10 0 6 7 10 15 10 8 0 15 5 15
10 0 13 -13 13 -27 -1 -6 -6 -34 -12 -63 -13 -30 -2 -55 -9 -60 -17 -7 -11
-13 -11 -33 0 -14 7 -30 10 -36 7 -6 -4 -11 -2 -11 3 0 11 10 14 40 13 8 -1 3
4 -12 11 -16 6 -28 13 -28 16 0 3 16 17 35 30 25 17 32 27 25 36 -5 6 -7 15
-3 18 16 16 -14 5 -58 -23 -49 -30 -81 -25 -34 6 50 33 12 62 -41 31z m-4 -81
c0 -3 -4 -8 -10 -11 -5 -3 -10 -1 -10 4 0 6 5 11 10 11 6 0 10 -2 10 -4z m255
-86 c3 -5 1 -10 -4 -10 -6 0 -11 5 -11 10 0 6 2 10 4 10 3 0 8 -4 11 -10z
m-165 -30 c0 -5 -5 -10 -11 -10 -5 0 -7 5 -4 10 3 6 8 10 11 10 2 0 4 -4 4
-10z"/>
<path d="M3867 504 c-8 -8 1 -24 14 -24 5 0 9 7 9 15 0 15 -12 20 -23 9z"/>
<path d="M4288 503 c7 -3 16 -2 19 1 4 3 -2 6 -13 5 -11 0 -14 -3 -6 -6z"/>
<path d="M4226 493 c-4 -5 -22 -13 -39 -20 -18 -6 -25 -12 -17 -12 21 -1 99
37 79 38 -9 1 -19 -2 -23 -6z"/>
<path d="M4196 314 c-10 -25 -1 -27 19 -4 15 17 16 20 3 20 -9 0 -19 -7 -22
-16z"/>
<path d="M4108 278 c-16 -5 -28 -14 -28 -19 0 -5 -19 -12 -42 -16 l-43 -7 45
-7 c25 -3 47 -3 50 1 3 5 22 11 43 15 21 4 41 14 44 22 7 17 -6 31 -15 17 -4
-6 -18 -14 -32 -18 l-25 -7 25 15 c28 17 18 19 -22 4z"/>
<path d="M3981 214 c0 -11 3 -14 6 -6 3 7 2 16 -1 19 -3 4 -6 -2 -5 -13z"/>
<path d="M3353 167 c-17 -7 -44 -23 -60 -37 -34 -30 -93 -58 -111 -53 -8 3
-10 -1 -5 -13 4 -12 3 -15 -5 -10 -7 4 -29 -3 -48 -15 -20 -12 -50 -25 -68
-29 -20 -5 6 -8 78 -9 l109 -1 56 37 c30 20 62 43 71 50 8 7 24 19 35 27 19
14 19 15 -9 13 -40 -3 -44 20 -5 28 22 5 34 3 40 -6 7 -11 9 -11 9 -1 0 7 5
10 10 7 6 -3 10 -1 10 5 0 7 -7 10 -15 7 -8 -4 -17 -2 -20 3 -8 13 -32 11 -72
-3z"/>
<path d="M3990 69 c0 -5 5 -7 10 -4 6 3 10 8 10 11 0 2 -4 4 -10 4 -5 0 -10
-5 -10 -11z"/>
<path d="M5166 54 c-7 -19 2 -37 15 -29 12 8 12 45 0 45 -5 0 -12 -7 -15 -16z"/>
<path d="M5095 51 c-11 -5 -56 -7 -100 -6 -88 2 -115 -2 -93 -16 10 -7 9 -9
-4 -9 -24 0 -31 -16 -7 -17 17 -2 24 8 20 30 0 4 6 7 15 7 11 0 14 -6 9 -20
-5 -17 -2 -20 24 -20 17 0 34 7 39 16 8 14 10 14 25 -1 16 -15 22 -12 18 8 -1
5 3 6 8 2 6 -3 19 0 30 7 17 10 23 9 41 -7 25 -22 36 -14 18 14 -14 23 -14 23
-43 12z"/>
<path d="M5240 49 c0 -5 5 -7 10 -4 6 3 10 8 10 11 0 2 -4 4 -10 4 -5 0 -10
-5 -10 -11z"/>
<path d="M3970 20 c-13 -8 -12 -10 3 -10 9 0 17 5 17 10 0 12 -1 12 -20 0z"/>
</g>
</svg>
